<?xml version="1.0" encoding="utf-8"?>
<!-- Generator: Adobe Illustrator 21.1.0, SVG Export Plug-In . SVG Version: 6.00 Build 0)  -->
<svg version="1.1" baseProfile="tiny" id="Capa_1" xmlns="http://www.w3.org/2000/svg" xmlns:xlink="http://www.w3.org/1999/xlink"
	 x="0px" y="0px" viewBox="0 0 407 138" overflow="scroll" xml:space="preserve">
<path fill="#262423" d="M209.8,35.4c7.3-0.1,14.6,0,21.8,0v13c-9.6,0.3-19.3-0.8-28.8,1.1c-6.6,1.4-12.9,5.8-14.9,12.5
	c-2.1,7.4-1.6,16.2,3.5,22.3c4.5,5.3,11.6,7.1,18.2,7.5c7.3,0.3,14.6,0.1,22,0.1V105c-8.3-0.1-16.5,0.2-24.8-0.1
	c-8.1-0.4-16.7-2.4-22.7-8.3c-7.1-6.5-10.1-16.3-10.2-25.7c-0.5-10.9,4.1-22.3,13-29C193.4,37.1,201.8,35.7,209.8,35.4"/>
<rect x="8.4" y="35.4" fill="#262423" width="13.8" height="69.6"/>
<path fill="#262423" d="M47.9,41.4c12.7-7.7,28.2-5,42.3-5.5v13c-9.1,0.3-18.4-0.7-27.4,0.9c-6.8,1.2-13.4,5.6-15.4,12.5
	c-2,7.3-1.4,16.2,3.9,22c4.6,4.9,11.7,6.6,18.2,6.9c6.9,0.2,13.8,0,20.7,0.1v13.2c-10.4-0.3-21,0.9-31.2-1.3
	c-9.2-1.8-17.6-7.8-21.9-16.1C29.7,71.8,33.2,50.8,47.9,41.4"/>
<path fill="#AD1C1D" d="M331.3,5.7h6.2c16,0.9,31.6,7.7,42.8,19.2c10.2,10.2,16.8,23.9,18.3,38.3c1.5,13.8-1.5,28-8.7,39.9
	c-7.5,12.6-19.3,22.5-33.1,27.5c-14.2,5.3-30.3,5.4-44.6,0.2c-14.4-5.2-26.7-15.6-34.2-29c-7-12.3-9.7-26.8-7.7-40.8
	c2.2-16.1,10.9-31.1,23.5-41.2C304.5,11.3,317.8,6.4,331.3,5.7 M327.1,16.2c-17.3,2.2-33,13.2-41,28.6c-6.4,12-8,26.6-4.3,39.7
	c3.6,13.3,12.5,25.1,24.3,32.2c11,6.7,24.5,9.3,37.2,7.2c15.4-2.4,29.4-11.8,37.6-25.1c6.8-10.8,9.5-24.1,7.6-36.7
	c-2-14.1-10-27.2-21.4-35.6C355.7,18,341.1,14.3,327.1,16.2 M299.8,65.2c6.6,0,13.2,0,19.8,0V75c-6.6,0-13.2,0-19.8,0v29.8H332v-9.9
	h-22.3V85c6.6,0,13.2,0,19.8,0V55.2h-19.8v-9.9c7.4,0,14.9,0,22.3,0v-9.9c-10.8,0-21.5,0-32.3,0C299.8,45.3,299.7,55.2,299.8,65.2
	 M337,35.5v9.9c7.4,0,14.8,0,22.3,0v9.9h-19.8V85h19.8v9.9H337v9.9h32.2V75.1h-19.8v-9.9h19.8V35.5H337z"/>
<path fill="#262423" d="M103.8,35.3c12.6,0,25.3,0,37.9,0.1c8,0.1,16.7,4.2,19.5,12.1c2.6,7.3,1.5,17.2-5.7,21.5
	c11.2,4.7,13.3,21.1,5.3,29.6c-4.7,4.8-11.7,6.2-18.2,6.3c-12.9,0-25.9,0-38.8,0V35.3z M117,48.2v14.7c7.3,0,14.5,0,21.8,0
	c3,0,6.5-0.2,8.8-2.5c2.1-2.3,2-6,0.7-8.6c-1.4-2.7-4.7-3.4-7.5-3.4C132.8,48.1,124.9,48.2,117,48.2 M117,75.5
	c-0.1,5.6,0,11.1-0.1,16.7c8.6,0,17.3,0,25.9,0c3-0.1,6.6-0.5,8.4-3.2c2.2-3.5,1.5-8.6-1.9-11.1c-2.7-2-6.2-2.4-9.5-2.4
	C132.2,75.5,124.6,75.5,117,75.5"/>
</svg>
