<?xml version="1.0" encoding="utf-8"?>
<!-- Generator: Adobe Illustrator 21.1.0, SVG Export Plug-In . SVG Version: 6.00 Build 0)  -->
<svg version="1.1" baseProfile="tiny" id="Capa_1" xmlns="http://www.w3.org/2000/svg" xmlns:xlink="http://www.w3.org/1999/xlink"
	 x="0px" y="0px" viewBox="0 0 121 42" overflow="auto" xml:space="preserve">
<path fill="#262423" d="M107.7,3.7c3.8-0.1,7.6,0,11.4,0v6.8c-5,0.2-10.1-0.4-15,0.6c-3.4,0.7-6.7,3-7.8,6.5
	c-1.1,3.8-0.8,8.4,1.8,11.6c2.3,2.7,6,3.7,9.5,3.9c3.8,0.2,7.6,0,11.4,0.1v6.8c-4.3,0-8.6,0.1-12.9-0.1c-4.2-0.2-8.7-1.2-11.8-4.3
	C90.6,32.1,89,27,89,22.1c-0.3-5.7,2.1-11.6,6.7-15.1C99.1,4.5,103.5,3.8,107.7,3.7"/>
<rect x="2.9" y="3.6" fill="#262423" width="7.2" height="36.2"/>
<path fill="#262423" d="M23.5,6.8c6.6-4,14.7-2.6,22-2.9v6.8c-4.8,0.2-9.6-0.4-14.3,0.5c-3.5,0.6-7,2.9-8,6.5
	c-1.1,3.8-0.7,8.4,2.1,11.4c2.4,2.6,6.1,3.4,9.5,3.6c3.6,0.1,7.2,0,10.8,0v6.9c-5.4-0.2-10.9,0.5-16.2-0.7c-4.8-1-9.1-4.1-11.4-8.4
	C14,22.6,15.8,11.7,23.5,6.8"/>
<path fill="#262423" d="M52.5,3.6c6.6,0,13.1,0,19.7,0.1c4.2,0,8.7,2.2,10.1,6.3c1.3,3.8,0.8,9-3,11.2c5.8,2.5,6.9,11,2.8,15.4
	c-2.4,2.5-6.1,3.2-9.4,3.3c-6.7,0-13.5,0-20.2,0V3.6z M59.4,10.3v7.6c3.8,0,7.6,0,11.3,0c1.6,0,3.4-0.1,4.6-1.3
	c1.1-1.2,1.1-3.1,0.4-4.5c-0.7-1.4-2.5-1.8-3.9-1.8C67.6,10.2,63.5,10.3,59.4,10.3 M59.4,24.5c-0.1,2.9,0,5.8-0.1,8.7
	c4.5,0,9,0,13.5,0c1.6-0.1,3.4-0.2,4.4-1.7c1.1-1.8,0.8-4.5-1-5.8c-1.4-1.1-3.2-1.2-4.9-1.2C67.3,24.5,63.3,24.5,59.4,24.5"/>
</svg>
