<?xml version="1.0" encoding="utf-8"?>
<!-- Generator: Adobe Illustrator 21.1.0, SVG Export Plug-In . SVG Version: 6.00 Build 0)  -->
<svg version="1.1" id="Capa_1" xmlns="http://www.w3.org/2000/svg" xmlns:xlink="http://www.w3.org/1999/xlink" x="0px" y="0px"
	 viewBox="0 0 50 50" style="enable-background:new 0 0 50 50;" xml:space="preserve">
<style type="text/css">
	.st0{fill-rule:evenodd;clip-rule:evenodd;fill:#B82732;}
</style>
<path id="XMLID_5633_" class="st0" d="M26.4,33.8v3.6h11.7v-3.6v-3.6v-3.6h-3.6h-3.6v-3.6h3.6h3.6v-3.6v-3.6v-3.1v-0.5H26.4v3.6h8.1
	v3.6h-7.2v0.5v3.1v3.6v3.6h3.7h3.6v3.6H26.4L26.4,33.8z M5.5,24.7c0-11,8.9-19.9,19.9-19.9c11,0,19.9,8.9,19.9,19.9
	c0,11-8.9,19.9-19.9,19.9C14.4,44.6,5.5,35.7,5.5,24.7L5.5,24.7z M1.9,24.7c0-13,10.5-23.5,23.5-23.5c13,0,23.5,10.5,23.5,23.5
	c0,13-10.5,23.5-23.5,23.5C12.4,48.2,1.9,37.7,1.9,24.7L1.9,24.7z M24.6,15.7v-3.6H12.8v3.6v3.6v3.6h3.6H20v3.6h-3.6h-3.6v3.6v3.6
	v3.1v0.5h11.7v-3.6h-8.1v-3.6h7.2v-0.5v-3.1v-3.6v-3.6H20h-3.6v-3.6H24.6z"/>
</svg>
