<?xml version="1.0" standalone="no"?>
<!DOCTYPE svg PUBLIC "-//W3C//DTD SVG 1.1//EN" "http://www.w3.org/Graphics/SVG/1.1/DTD/svg11.dtd" >
<svg xmlns="http://www.w3.org/2000/svg">
<metadata></metadata>
<defs>
<font id="webfontregular" horiz-adv-x="1228" >
<font-face units-per-em="2048" ascent="1704" descent="-344" />
<missing-glyph horiz-adv-x="481" />
<glyph unicode="&#xfb01;" horiz-adv-x="1275" d="M61 907v119l183 14v56q0 92 18.5 152.5t58 95t102 49t150.5 14.5q35 0 81 -4t100 -19v-139q-45 12 -83 16.5t-73 4.5q-66 0 -102.5 -9.5t-55 -29t-23.5 -52t-5 -77.5v-54h342v-137h-342v-907h-168v907h-183zM913 1198v191h195v-191h-195zM926 0v1044h168v-1044h-168z" />
<glyph unicode="&#xfb02;" horiz-adv-x="1267" d="M61 907v119l183 14v56q0 92 18.5 152.5t58 95t102 49t150.5 14.5q35 0 81 -4t100 -19v-139q-45 12 -83 16.5t-73 4.5q-66 0 -102.5 -9.5t-55 -29t-23.5 -52t-5 -77.5v-54h342v-137h-342v-907h-168v907h-183zM926 0v1389h168v-1389h-168z" />
<glyph horiz-adv-x="0" />
<glyph horiz-adv-x="682" />
<glyph unicode=" "  horiz-adv-x="481" />
<glyph unicode="&#x09;" horiz-adv-x="481" />
<glyph unicode="&#xa0;" horiz-adv-x="481" />
<glyph unicode="!" horiz-adv-x="557" d="M170 0v219h217v-219h-217zM182 1389h193l-27 -947h-139z" />
<glyph unicode="&#x22;" horiz-adv-x="692" d="M135 1389h160l-25 -482h-110zM424 1389h160l-25 -482h-110z" />
<glyph unicode="#" horiz-adv-x="1265" d="M45 125l31 121h248l102 405h-248l31 121h248l94 371h129l-94 -371h237l95 371h129l-95 -371h248l-31 -121h-247l-103 -405h250l-31 -121h-250l-92 -371h-129l92 371h-237l-92 -371h-129l92 371h-248zM453 246h237l103 405h-238z" />
<glyph unicode="$" horiz-adv-x="1015" d="M115 819q0 98 35.5 164t94 105.5t132.5 56t151 18.5l58 226h157l-59 -234q37 -4 74 -12t71 -21v-143q-80 29 -156.5 35t-129.5 6q-254 0 -254 -197q0 -51 19.5 -80.5t53 -45t76.5 -20.5t90 -7q55 -4 123 -12.5t125.5 -40t96 -94t38.5 -173.5q0 -102 -36.5 -173t-99 -116 t-146.5 -64.5t-176 -19.5h-11l-53 -219h-160l58 234q-43 6 -86 14t-76 21v151q41 -14 88 -23.5t92 -15.5t85 -8t67 -2q82 0 136 13.5t87 40t45 65.5t12 90q0 55 -19.5 87t-53 48t-76.5 21.5t-90 7.5q-53 2 -119 11t-125 41t-99 94.5t-40 170.5z" />
<glyph unicode="%" horiz-adv-x="1820" d="M113 795q0 80 14 148.5t52 118.5t103.5 77.5t168.5 27.5q102 0 168.5 -27.5t104.5 -77.5t52.5 -119t14.5 -148q0 -82 -14.5 -151t-52.5 -119t-104.5 -77.5t-168.5 -27.5t-168 27.5t-104 77.5t-52 119t-14 151zM252 795q0 -53 6 -99.5t27.5 -80t60.5 -53t105 -19.5 t104.5 19.5t60 53t27.5 80t6 99.5t-6 99t-27.5 80t-60.5 53.5t-104 19.5q-66 0 -105 -19.5t-60.5 -53.5t-27.5 -80t-6 -99zM344 -246l981 1389h156l-981 -1389h-156zM1030 102q0 82 14.5 151t52.5 119t104.5 77.5t168.5 27.5t168 -27.5t103.5 -77.5t52 -119t14.5 -151 q0 -80 -14.5 -148.5t-52 -118.5t-103 -77.5t-168.5 -27.5q-102 0 -168.5 27.5t-104.5 77.5t-52.5 119t-14.5 148zM1171 102q0 -53 6.5 -99t28 -80t60.5 -53.5t104 -19.5q66 0 104.5 19.5t60 53.5t28 80t6.5 99t-6.5 99.5t-28 80t-60 53t-104.5 19.5t-104.5 -19.5t-60 -53 t-28 -80t-6.5 -99.5z" />
<glyph unicode="&#x26;" horiz-adv-x="1495" d="M145 367q0 70 21.5 126t55.5 99t75 72.5t82 46.5v2q-86 53 -143.5 136t-57.5 206q0 174 116 264t333 94q25 0 56.5 -2t65 -5t66.5 -9t59 -13v-151q-55 12 -115.5 19.5t-105.5 7.5q-84 0 -139 -18.5t-87 -49.5t-44 -73t-12 -91q0 -51 19.5 -94t49.5 -74q43 -43 96.5 -61.5 t118.5 -18.5h299l41 211h113l-2 -211h262v-145h-262v-334q0 -53 7 -87t27.5 -53.5t56.5 -26.5t95 -7q29 0 61.5 5t59.5 13v-139q-43 -14 -88 -18t-88 -4q-115 0 -175.5 38.5t-84.5 100.5h-4q-66 -66 -165 -107t-202 -41q-94 0 -178 22.5t-146.5 70t-99.5 122t-37 177.5z M340 369q0 -123 71.5 -176.5t204.5 -53.5q98 0 184.5 40t137.5 110v346h-301q-70 0 -127 -19.5t-104 -66.5q-66 -66 -66 -180z" />
<glyph unicode="'" horiz-adv-x="430" d="M135 1389h160l-25 -482h-110z" />
<glyph unicode="(" horiz-adv-x="679" d="M178 633q0 207 51.5 419t171.5 443h166q-98 -213 -153.5 -430t-55.5 -432q0 -223 56.5 -437t152.5 -438h-164q-121 238 -173 451t-52 424z" />
<glyph unicode=")" horiz-adv-x="679" d="M113 -242q96 223 152.5 437.5t56.5 437.5q0 215 -55.5 432t-153.5 430h166q121 -231 172 -443t51 -419q0 -211 -52.5 -424t-173.5 -451h-163z" />
<glyph unicode="*" d="M248 1182l33 106l276 -88l4 293h111l2 -293l276 88l33 -106l-276 -92l167 -236l-90 -63l-168 225l-167 -225l-91 63l170 236z" />
<glyph unicode="+" horiz-adv-x="1191" d="M115 483v146h399v407h162v-407h401v-146h-401v-407h-162v407h-399z" />
<glyph unicode="," horiz-adv-x="557" d="M90 -242l115 482h221l-207 -482h-129z" />
<glyph unicode="-" horiz-adv-x="786" d="M66 483v146h655v-146h-655z" />
<glyph unicode="." horiz-adv-x="557" d="M170 0v219h217v-219h-217z" />
<glyph unicode="/" horiz-adv-x="710" d="M-23 -174l601 1737h155l-600 -1737h-156z" />
<glyph unicode="0" horiz-adv-x="1308" d="M145 571q0 137 22.5 247t79 186.5t155 118.5t251.5 42q152 0 251.5 -42t156.5 -118.5t79.5 -186.5t22.5 -247t-22.5 -246.5t-79.5 -187.5t-156.5 -120t-251.5 -42q-154 0 -252 42t-154.5 120t-79 187.5t-22.5 246.5zM324 571q0 -96 10 -179t44 -143.5t99.5 -95 t175.5 -34.5q111 0 176.5 34.5t99.5 95t44 143.5t10 179t-10 178t-44 142.5t-99.5 95.5t-176.5 35t-176 -35t-99 -95.5t-44 -142t-10 -178.5z" />
<glyph unicode="1" horiz-adv-x="753" d="M20 971v125l498 59v-1155h-170v975z" />
<glyph unicode="2" horiz-adv-x="1093" d="M113 143q76 43 149.5 90.5t139 93.5t121 90t91.5 81q51 51 82 90t46.5 72.5t19.5 66.5t4 74q0 100 -69.5 161.5t-213.5 61.5q-66 0 -151.5 -12.5t-167.5 -34.5v143q59 20 151.5 33.5t180.5 13.5q94 0 177 -20.5t142 -64.5t94 -112.5t35 -162.5q0 -115 -59.5 -214 t-147.5 -183t-189.5 -152t-187.5 -117v-4h617v-137h-856z" />
<glyph unicode="3" horiz-adv-x="1107" d="M113 -61q39 -14 87 -24.5t96 -18t93 -10.5t76 -3q63 0 123.5 12.5t105.5 43t73 83t28 130.5q0 57 -18.5 100t-47.5 72q-43 43 -94 56t-111 13h-227v135h221q51 0 98.5 15.5t85.5 54.5q72 72 72 174q0 49 -13 94t-46 80t-89.5 56.5t-144.5 21.5q-37 0 -80 -4t-87 -10 t-85 -14.5t-73 -18.5v143q78 25 170 36t168 11q119 0 205.5 -27.5t143 -76.5t83 -115.5t26.5 -144.5q0 -121 -55 -203t-139 -127v-4q43 -18 83 -45t68.5 -63.5t46 -87t17.5 -117.5q0 -115 -39 -195t-107.5 -131t-161 -73.5t-198.5 -22.5q-82 0 -177 16.5t-177 40.5v148z" />
<glyph unicode="4" horiz-adv-x="1150" d="M70 242l495 901h183l-496 -912h516l27 465h141v-460h174v-142h-174v-336h-170v336h-688z" />
<glyph unicode="5" horiz-adv-x="1150" d="M172 -61q37 -12 86 -22.5t98.5 -18t95.5 -11.5t76 -4q70 0 130.5 14.5t105.5 47t71.5 87t26.5 132.5q0 92 -33.5 145t-86 79t-119 33t-129.5 7h-40t-58 -2t-83 -4t-116 -4v725h766v-137h-596v-435q47 2 75.5 2h42.5q109 0 209.5 -14t177 -57t122.5 -122t46 -210 q0 -115 -38.5 -197t-108.5 -135t-163 -78.5t-200 -25.5q-82 0 -181 14t-177 43v148z" />
<glyph unicode="6" horiz-adv-x="1253" d="M145 662q0 176 34 315t105.5 236.5t183.5 148.5t269 51q25 0 63 -2t80 -8t83 -15.5t71 -21.5v-143q-66 27 -146.5 37t-144.5 10q-90 0 -165.5 -23.5t-132 -84t-89 -167t-34.5 -272.5h4q37 37 83 64.5t96 45t98 26.5t87 9q117 0 201 -34.5t138 -95t79 -143.5t25 -179 q0 -84 -29 -163t-87.5 -140.5t-150.5 -99.5t-217 -38q-258 0 -381 178.5t-123 508.5zM328 535q8 -209 90 -312.5t246 -103.5q80 0 136 23.5t91 63.5t51 92t16 112q0 70 -13 126t-45 97t-85 63.5t-135 22.5q-49 0 -99.5 -12.5t-97.5 -37t-87 -58t-68 -76.5z" />
<glyph unicode="7" horiz-adv-x="962" d="M51 1006v137h854l8 -131l-499 -1258h-187l504 1247l-2 5h-678z" />
<glyph unicode="8" horiz-adv-x="1306" d="M156 367q0 125 60 213t165 129v4q-35 18 -71 48t-64.5 70.5t-46 96t-17.5 125.5q0 88 34 155.5t95.5 112.5t148.5 68.5t191 23.5q106 0 193.5 -23.5t150 -68.5t96 -112.5t33.5 -155.5q0 -70 -17 -125.5t-46 -96t-64.5 -70.5t-70.5 -48v-4q104 -41 164.5 -129t60.5 -213 q0 -104 -40 -178t-107.5 -122.5t-158.5 -70t-194 -21.5q-102 0 -192 21.5t-158 70t-106.5 122t-38.5 178.5zM334 369q0 -78 30.5 -127t76.5 -77t102.5 -39t109.5 -11q51 0 108.5 11t103.5 39t77 77t31 127q0 66 -17.5 110.5t-46.5 73.5q-41 41 -101 63.5t-155 22.5 q-94 0 -154.5 -22.5t-101.5 -63.5q-29 -29 -46 -74t-17 -110zM360 1032q0 -102 60 -162q47 -47 101 -65.5t132 -18.5t132.5 18.5t101.5 65.5q59 59 59 162q0 51 -12 95t-45 77t-90.5 50.5t-145.5 17.5q-90 0 -146 -17.5t-89 -50.5t-45.5 -77t-12.5 -95z" />
<glyph unicode="9" horiz-adv-x="1253" d="M121 727q0 84 28.5 163t87 140.5t149.5 99t218 37.5q258 0 381 -179t123 -507q0 -176 -34 -315t-105.5 -236.5t-184 -148.5t-268.5 -51q-25 0 -62.5 2t-79.5 8t-83 15t-72 22v143q66 -27 146.5 -37t144.5 -10q88 0 165 23.5t133 84t89 167t35 272.5h-4q-37 -37 -83 -64.5 t-96.5 -45t-98.5 -27t-87 -9.5q-117 0 -200.5 35t-138 95.5t-79 143.5t-24.5 179zM295 733q0 -70 13.5 -126t45 -97t84.5 -63.5t135 -22.5q94 0 190.5 46t162.5 138q-8 209 -90 312.5t-246 103.5q-80 0 -136.5 -23.5t-91 -63.5t-51 -92t-16.5 -112z" />
<glyph unicode=":" horiz-adv-x="557" d="M170 0v219h217v-219h-217zM170 825v219h217v-219h-217z" />
<glyph unicode=";" horiz-adv-x="557" d="M70 -242l114 482h222l-207 -482h-129zM182 825v219h217v-219h-217z" />
<glyph unicode="&#x3c;" horiz-adv-x="1329" d="M86 485v142l1120 510v-181l-428 -194q-45 -20 -101 -45t-119.5 -52.5t-128 -55t-126.5 -52.5v-2q61 -25 126 -52.5t128.5 -55t119.5 -52t101 -45.5l428 -194v-181z" />
<glyph unicode="=" horiz-adv-x="1245" d="M115 283v145h1015v-145h-1015zM115 696v146h1015v-146h-1015z" />
<glyph unicode="&#x3e;" horiz-adv-x="1329" d="M123 -25v181l428 194q45 20 101.5 45t120 52.5t128 55t125.5 52.5v2q-61 25 -125.5 52.5t-128 55t-120 52t-101.5 45.5l-428 194v181l1120 -510v-142z" />
<glyph unicode="?" horiz-adv-x="964" d="M94 1212v154q84 27 170 37t152 10q121 0 208 -27.5t144 -76.5t84 -118t27 -151q0 -100 -40 -170.5t-106.5 -117.5t-155 -76t-186.5 -43l-6 -191h-156l-8 314q61 2 142 12t153 39t122 81t50 140q0 45 -16.5 87t-53 74t-96 51.5t-145.5 19.5q-23 0 -56.5 -3.5t-71.5 -8.5 t-78 -14t-77 -22zM201 0v219h217v-219h-217z" />
<glyph unicode="@" horiz-adv-x="1630" d="M137 449q0 164 48 298t139.5 229t225.5 146.5t306 51.5q168 0 293 -49.5t207 -136.5t122 -210t40 -270q0 -203 -96.5 -300t-250.5 -97q-66 0 -128 27.5t-85 90.5h-4q-31 -39 -62.5 -59t-61 -29.5t-53 -10.5t-40.5 -1q-45 0 -87 14.5t-73.5 46t-50 79.5t-18.5 116 q0 82 24.5 153.5t73.5 124t122 82t167 29.5q72 0 134.5 -10t107.5 -21l-54 -272q-6 -35 -12 -77t0 -77.5t31.5 -60.5t81.5 -25q100 0 146 74t46 195q0 119 -30.5 220t-94 175t-162 116t-233.5 42q-139 0 -247.5 -45t-182.5 -125t-113 -191.5t-39 -242.5q0 -139 40 -249 t115 -185.5t182.5 -115.5t244.5 -40q57 0 128 14t124 39v-129q-45 -23 -115.5 -35t-136.5 -12q-168 0 -301 46t-226 137t-142.5 224t-49.5 306zM657 385q0 -61 21.5 -92t85.5 -31q20 0 41.5 5t42 21.5t38 45t29.5 78.5l54 229q-23 4 -45.5 5t-38.5 1q-53 0 -96.5 -21.5 t-72 -58.5t-44 -84t-15.5 -98z" />
<glyph unicode="A" horiz-adv-x="1300" d="M39 0l493 1389h234l496 -1389h-193l-119 342h-602l-117 -342h-192zM399 487h500l-176 517q-25 74 -40 123t-32 102h-4q-16 -53 -31.5 -102.5t-40.5 -122.5z" />
<glyph unicode="B" horiz-adv-x="1263" d="M184 0v1389h469q127 0 224.5 -18.5t162.5 -84.5q41 -41 64.5 -103.5t23.5 -148.5q0 -68 -14 -118t-38.5 -87.5t-57.5 -63.5t-68 -44v-4q39 -14 78 -42t70.5 -69t51 -96t19.5 -125q0 -92 -26.5 -161.5t-69.5 -112.5q-72 -70 -177 -90.5t-243 -20.5h-469zM371 145h319 q78 0 134.5 13.5t99.5 56.5q29 29 40 73t11 105t-11.5 102.5t-39.5 69.5q-43 45 -99.5 57.5t-134.5 12.5h-319v-490zM371 780h293q74 0 127 12.5t94 53.5q49 49 49 168q0 115 -49 164q-41 41 -94.5 53t-126.5 12h-293v-463z" />
<glyph unicode="C" horiz-adv-x="1134" d="M115 690q0 201 39 339t112.5 223t182 123t249.5 38q66 0 151 -8t185 -39v-154q-86 29 -163.5 38.5t-137.5 9.5q-102 0 -181 -25t-132 -89.5t-82 -174t-29 -277.5q0 -170 29 -278.5t82 -170t132 -85t181 -23.5q72 0 162 14.5t166 43.5v-162q-41 -18 -90 -29.5t-98.5 -17.5 t-95.5 -8.5t-79 -2.5q-141 0 -249.5 37t-182 121t-112.5 220t-39 337z" />
<glyph unicode="D" horiz-adv-x="1368" d="M184 0v1389h492q141 0 236.5 -32t168.5 -106q86 -86 129 -222t43 -335t-43 -335t-129 -222q-74 -74 -169 -105.5t-236 -31.5h-492zM371 145h301q84 0 148.5 18.5t113.5 67.5q61 61 93 175t32 288t-32 288t-93 175q-49 49 -113.5 67.5t-148.5 18.5h-301v-1098z" />
<glyph unicode="E" horiz-adv-x="1116" d="M184 0v1389h838v-146h-651v-463h565v-145h-565v-490h667v-145h-854z" />
<glyph unicode="F" horiz-adv-x="1054" d="M184 0v1389h854v-146h-667v-463h565v-145h-565v-635h-187z" />
<glyph unicode="G" horiz-adv-x="1361" d="M115 688q0 209 43 348.5t125 223t200.5 118.5t272.5 35q31 0 73.5 -2t92 -7t100.5 -14.5t100 -23.5v-154q-90 23 -180 35.5t-156 12.5q-117 0 -207 -23t-149 -85t-90 -174t-31 -290q0 -172 33 -281.5t89 -171t131 -85t157 -23.5q70 0 141.5 6t155.5 35v467h-344v145h530 v-704q-119 -59 -237.5 -81t-231.5 -22q-150 0 -264.5 37t-193 122t-119.5 221t-41 335z" />
<glyph unicode="H" horiz-adv-x="1417" d="M184 0v1389h187v-609h676v609h186v-1389h-186v635h-676v-635h-187z" />
<glyph unicode="I" horiz-adv-x="555" d="M184 0v1389h187v-1389h-187z" />
<glyph unicode="J" horiz-adv-x="563" d="M29 -242q86 135 125 275.5t39 318.5v1037h186v-994q0 -102 -8.5 -188t-28.5 -163t-52 -146.5t-81 -139.5h-180z" />
<glyph unicode="K" horiz-adv-x="1257" d="M184 0v1389h187v-609h202l398 609h205l-441 -672l500 -717h-217l-443 635h-204v-635h-187z" />
<glyph unicode="L" horiz-adv-x="1036" d="M184 0v1389h187v-1244h655v-145h-842z" />
<glyph unicode="M" horiz-adv-x="1718" d="M184 0v1389h240l432 -848h6l432 848h240v-1389h-184v389q0 184 5 387t7 387h-6q-39 -88 -71 -160.5t-73 -154.5l-282 -557h-142l-282 557q-41 82 -73 154.5t-71 160.5h-6q2 -184 7.5 -387t5.5 -387v-389h-185z" />
<glyph unicode="N" horiz-adv-x="1452" d="M184 0v1389h199l541 -838q45 -70 80.5 -131.5t82.5 -145.5h7q-2 82 -3 178.5t-2.5 193.5t-1.5 189.5v170.5v383h181v-1389h-199l-541 838q-45 70 -80.5 131t-82.5 145h-7q2 -82 3 -178t2.5 -193.5t1.5 -190.5v-169v-383h-181z" />
<glyph unicode="O" horiz-adv-x="1413" d="M115 694q0 168 27.5 301t95 226.5t181 142.5t288.5 49q174 0 287.5 -49t181 -142.5t95 -226.5t27.5 -301t-27.5 -301t-95 -226t-181 -142.5t-287.5 -49.5t-288 49.5t-181.5 142.5t-95 226t-27.5 301zM309 694q0 -143 18.5 -249.5t63.5 -176t122 -104.5t194 -35t193.5 35 t121.5 104.5t63.5 176t18.5 249.5t-18.5 250t-63.5 176.5t-122 104.5t-193 35q-117 0 -194 -35t-122 -104.5t-63.5 -176.5t-18.5 -250z" />
<glyph unicode="P" horiz-adv-x="1230" d="M184 0v1389h465q154 0 250 -24t160 -87q110 -110 110 -336q-1 -234 -110 -344q-63 -63 -159.5 -87t-250.5 -24h-278v-487h-187zM371 633h293q94 0 148 11t99 56q35 35 49.5 94.5t14.5 143.5t-18.5 143.5t-53.5 94.5q-23 23 -45 36t-50 20t-62.5 9t-81.5 2h-293v-610z" />
<glyph unicode="Q" horiz-adv-x="1413" d="M115 694q0 168 27.5 301t95 226.5t181 142.5t288.5 49q174 0 287.5 -49t181 -142.5t95 -226.5t27.5 -301q0 -231 -53 -394t-192 -247l268 -295h-234l-217 232q-70 -14 -163 -15q-174 0 -288 49.5t-181.5 142.5t-95 226t-27.5 301zM309 694q0 -143 18.5 -249.5t63.5 -176 t122 -104.5t194 -35t193.5 35t121.5 104.5t63.5 176t18.5 249.5t-18.5 250t-63.5 176.5t-122 104.5t-193 35q-117 0 -194 -35t-122 -104.5t-63.5 -176.5t-18.5 -250z" />
<glyph unicode="R" horiz-adv-x="1277" d="M184 0v1389h510q141 0 227.5 -23t143.5 -82q104 -104 104 -309q0 -104 -28.5 -181t-79.5 -128q-82 -82 -240 -101l393 -565h-217l-389 559h-237v-559h-187zM371 705h331q82 0 126 12t83 51q63 59 64 207q0 145 -64 205q-39 39 -83 51t-126 12h-331v-538z" />
<glyph unicode="S" horiz-adv-x="1191" d="M127 1018q0 117 44 193.5t117.5 120.5t169 62.5t197.5 18.5q25 0 67 -2t89 -6t97 -14.5t93 -24.5v-154q-98 33 -191 40.5t-159 7.5q-158 0 -242.5 -58.5t-84.5 -169.5q0 -80 26.5 -122t71.5 -62.5t106.5 -25.5t133.5 -9q84 -6 164.5 -22.5t143 -60.5t100.5 -122t38 -202 q0 -127 -49 -210t-129 -132.5t-181.5 -69t-205.5 -19.5q-25 0 -75 2.5t-108.5 8.5t-117 17t-103.5 30v162q49 -18 107.5 -29.5t114 -18t104.5 -8.5t82 -2q197 0 280.5 68.5t83.5 179.5q0 82 -26.5 130t-72.5 72.5t-110.5 32t-138.5 9.5q-90 2 -170 21.5t-139 63.5t-93 117.5 t-34 186.5z" />
<glyph unicode="T" horiz-adv-x="1071" d="M31 1243v146h1009v-146h-411v-1243h-187v1243h-411z" />
<glyph unicode="U" horiz-adv-x="1363" d="M154 473v916h186v-953q0 -53 12.5 -116.5t65.5 -116.5q43 -43 103.5 -63.5t160.5 -20.5t160.5 20.5t103.5 63.5q53 53 65.5 116.5t12.5 116.5v953h186v-916q0 -100 -22.5 -196.5t-97.5 -172.5q-66 -66 -163.5 -97.5t-244.5 -31.5t-244.5 32t-163.5 97q-76 76 -98 172.5 t-22 196.5z" />
<glyph unicode="V" d="M18 1389h197l270 -803q37 -111 72 -219.5t57 -182.5h9q23 74 57.5 182.5t71.5 219.5l270 803h188l-479 -1389h-233z" />
<glyph unicode="W" horiz-adv-x="1921" d="M29 1389h182l172 -625q37 -137 74 -277.5t71 -279.5h9q45 135 93 273t95 272l143 411l-82 226h187l209 -594q51 -143 102 -291t98 -293h9q41 147 78.5 294.5t82.5 311.5l158 572h182l-397 -1389h-203l-172 479q-16 45 -37.5 105.5t-43 122t-41 119t-33.5 98.5h-7 q-14 -43 -33.5 -99.5t-41 -118t-43 -121t-37.5 -106.5l-174 -479h-203z" />
<glyph unicode="X" horiz-adv-x="1161" d="M18 0l459 705l-444 684h207l340 -533l342 533h206l-444 -684l459 -705h-207l-356 555l-355 -555h-207z" />
<glyph unicode="Y" horiz-adv-x="1177" d="M8 1389h203l381 -684h2l383 684h192l-487 -848v-541h-186v539z" />
<glyph unicode="Z" horiz-adv-x="1097" d="M84 0v135l715 1106v2h-684v146h897v-138l-715 -1104v-2h717v-145h-930z" />
<glyph unicode="[" horiz-adv-x="679" d="M209 -242v1737h381v-137h-213v-1462h213v-138h-381z" />
<glyph unicode="\" horiz-adv-x="710" d="M-23 1563h156l600 -1737h-155z" />
<glyph unicode="]" horiz-adv-x="679" d="M90 -104h213v1462h-213v137h381v-1737h-381v138z" />
<glyph unicode="^" horiz-adv-x="1021" d="M102 793l353 596h112l353 -596h-142l-266 462l-270 -462h-140z" />
<glyph unicode="_" horiz-adv-x="1048" d="M0 -207h1049v-137h-1049v137z" />
<glyph unicode="`" d="M293 1389h223l221 -230h-157z" />
<glyph unicode="a" horiz-adv-x="1085" d="M100 299q0 76 20.5 129t59.5 92q66 66 168 85.5t219 19.5q16 0 73.5 -2t121.5 -7v129q0 59 -12.5 95.5t-42 54.5t-79.5 24.5t-128 6.5q-55 0 -136 -7.5t-182 -29.5v143q37 10 84 17.5t93.5 11.5t90.5 6t74 2q100 0 177 -12.5t127.5 -46t76 -94t25.5 -156.5v-760h-117 l-25 109h-2q-66 -61 -147.5 -94t-177.5 -33q-80 0 -155 22.5t-124 69.5q-41 41 -61.5 100t-20.5 125zM276 295q0 -49 16.5 -82t46.5 -51.5t68.5 -26.5t84.5 -8q106 0 168.5 36t101.5 93v225q-61 6 -114.5 8.5t-69.5 2.5q-66 0 -108 -4.5t-71.5 -12.5t-48 -21.5t-37.5 -29.5 q-16 -16 -26.5 -46t-10.5 -83z" />
<glyph unicode="b" horiz-adv-x="1202" d="M174 0v1389h168v-447h4q72 66 149.5 93.5t155.5 27.5q221 0 330 -126t109 -407q0 -279 -122 -413.5t-364 -134.5q-27 0 -63.5 4t-76.5 15t-80 28.5t-73 42.5h-4l-20 -72h-113zM342 203q45 -41 110.5 -59.5t131.5 -18.5q76 0 137 19.5t103 65.5t64.5 122t22.5 190 q0 219 -70.5 308.5t-217.5 89.5q-80 0 -151 -40t-130 -114v-563z" />
<glyph unicode="c" horiz-adv-x="962" d="M113 522q0 123 22.5 223.5t77.5 173t149.5 111.5t239.5 39q53 0 118.5 -6t137.5 -31v-143q-66 25 -126 31t-111 6q-80 0 -138.5 -16.5t-99.5 -57.5q-47 -47 -69.5 -131t-22.5 -199q0 -117 21.5 -194.5t74.5 -130.5q41 -41 98.5 -55.5t135.5 -14.5q53 0 123.5 10t144.5 39 v-151q-82 -29 -151.5 -39.5t-135.5 -10.5q-254 0 -371.5 131.5t-117.5 415.5z" />
<glyph unicode="d" horiz-adv-x="1202" d="M113 522q0 279 121.5 410t363.5 131q29 0 64.5 -3t71.5 -10.5t69 -18.5t57 -27v385h168v-1389h-121l-20 123h-2q-74 -78 -161 -109.5t-173 -31.5q-223 0 -330.5 129t-107.5 411zM291 522q0 -219 72.5 -308t220.5 -89q80 0 148.5 40t127.5 114v567q-45 41 -110.5 57.5 t-131.5 16.5q-78 0 -138 -19.5t-102 -66t-64.5 -122t-22.5 -190.5z" />
<glyph unicode="e" horiz-adv-x="1097" d="M113 522q0 154 34.5 258.5t96 169t146.5 92t188 27.5q219 0 316 -111.5t97 -326.5q0 -18 -3 -63.5t-7 -80.5h-686q4 -98 22.5 -171.5t65.5 -120.5q76 -76 254 -76q66 0 147.5 9t161.5 40v-143q-37 -14 -82 -23.5t-90 -15.5t-88 -8.5t-78 -2.5q-262 0 -378.5 132.5 t-116.5 414.5zM299 625h524q2 20 2 29.5v13.5q0 66 -13 117t-46 83q-31 31 -80.5 44.5t-110.5 13.5q-53 0 -103 -13.5t-89 -52.5q-68 -68 -84 -235z" />
<glyph unicode="f" horiz-adv-x="759" d="M61 907v119l183 14v56q0 92 18.5 152.5t58 95t102 49t150.5 14.5q39 0 101.5 -4t122.5 -19v-139q-49 12 -105.5 16.5t-93.5 4.5q-66 0 -102.5 -9.5t-55 -29t-23.5 -52t-5 -77.5v-54h362v-137h-362v-907h-168v907h-183z" />
<glyph unicode="g" horiz-adv-x="1185" d="M113 563q0 256 121.5 378t353.5 122q25 0 60.5 -4t75.5 -13.5t79 -27t71 -41.5h5l20 67h113v-1007q0 -135 -45 -215t-114 -122t-154 -55.5t-164 -13.5q-76 0 -175.5 11.5t-175.5 38.5v151q68 -23 151 -36t181 -13q76 0 136.5 11t103.5 39t65.5 74t22.5 116v161h-4 q-70 -66 -146 -92t-153 -26q-213 0 -320.5 118.5t-107.5 378.5zM291 563q0 -197 69.5 -275.5t208.5 -78.5q78 0 150 39t125 112v482q-43 41 -107.5 59.5t-128.5 18.5q-72 0 -131 -17.5t-100 -58.5t-63.5 -109.5t-22.5 -171.5z" />
<glyph unicode="h" horiz-adv-x="1206" d="M174 0v1389h168v-474h4q86 82 180.5 115t192.5 33q96 0 159.5 -20.5t102.5 -60.5t54.5 -101.5t15.5 -143.5v-737h-168v702q0 117 -43 165t-162 48q-96 0 -183 -44t-153 -128v-743h-168z" />
<glyph unicode="i" horiz-adv-x="524" d="M160 1198v191h196v-191h-196zM174 0v1044h168v-1044h-168z" />
<glyph unicode="j" horiz-adv-x="534" d="M61 -344q57 86 90 196.5t33 231.5v960h168v-833q0 -90 -4 -166t-17.5 -142.5t-38 -127t-65.5 -119.5h-166zM170 1198v191h197v-191h-197z" />
<glyph unicode="k" horiz-adv-x="1056" d="M174 0v1389h168v-764h147l285 419h191l-332 -483l399 -561h-201l-342 487h-147v-487h-168z" />
<glyph unicode="l" horiz-adv-x="516" d="M174 0v1389h168v-1389h-168z" />
<glyph unicode="m" horiz-adv-x="1812" d="M174 0v1044h121l24 -147h3q84 92 176 129t190 37q129 0 196.5 -41t94.5 -123h2q84 92 175 128t190 36q90 0 149 -20.5t95 -60.5t51.5 -101.5t15.5 -143.5v-737h-168v705q0 117 -39 165t-145 48q-86 0 -166 -44.5t-140 -128.5v-745h-168v705q0 117 -38.5 165t-145.5 48 q-86 0 -166 -45.5t-139 -129.5v-743h-168z" />
<glyph unicode="n" horiz-adv-x="1206" d="M174 0v1044h121l24 -147h3q90 92 191 129t206 37q96 0 159.5 -20.5t102.5 -60.5t54.5 -101.5t15.5 -143.5v-737h-168v702q0 117 -43 165t-162 48q-96 0 -183 -44t-153 -128v-743h-168z" />
<glyph unicode="o" horiz-adv-x="1200" d="M113 522q0 156 34.5 260.5t99 168t153.5 91t200 27.5t200 -27.5t153.5 -91t99 -168t34.5 -260.5t-34.5 -260t-99 -167.5t-153.5 -91.5t-200 -28t-200 28t-153.5 91.5t-99 168t-34.5 259.5zM289 522q0 -123 21.5 -202.5t66.5 -124.5q41 -41 96 -58.5t127 -17.5t127 17.5 t96 58.5q45 45 66.5 124.5t21.5 202.5t-21.5 203t-66.5 125q-41 41 -96 58.5t-127 17.5t-127 -17.5t-96 -58.5q-45 -45 -66.5 -125t-21.5 -203z" />
<glyph unicode="p" horiz-adv-x="1202" d="M174 -344v1388h121l20 -122h2q74 78 161 109.5t173 31.5q223 0 331 -126t108 -409q0 -279 -122 -412.5t-364 -133.5q-29 0 -64.5 3t-71.5 11t-68.5 19.5t-57.5 27.5v-387h-168zM342 203q45 -41 110.5 -59.5t131.5 -18.5q76 0 137 19.5t103 65.5t64.5 122t22.5 190 q0 219 -70.5 308.5t-217.5 89.5q-80 0 -151 -40t-130 -114v-563z" />
<glyph unicode="q" horiz-adv-x="1202" d="M113 522q0 279 121.5 410t363.5 131q27 0 63.5 -4t76.5 -13.5t80 -27t73 -41.5h4l20 67h113v-1388h-168v446h-4q-72 -66 -149.5 -93t-155.5 -27q-223 0 -330.5 129t-107.5 411zM291 522q0 -219 70.5 -308t218.5 -89q80 0 150.5 40t129.5 114v563q-45 41 -110.5 59.5 t-131.5 18.5q-78 0 -138 -19.5t-102 -66t-64.5 -122t-22.5 -190.5z" />
<glyph unicode="r" horiz-adv-x="778" d="M174 0v1044h121l22 -157h2q49 78 120 126t175 48q47 0 82 -7t70 -24v-143q-43 23 -78 28t-63 5q-55 0 -97.5 -16.5t-76 -44.5t-60 -65.5t-49.5 -80.5v-713h-168z" />
<glyph unicode="s" horiz-adv-x="1007" d="M131 770q0 88 35 146.5t95.5 92t138 47t163.5 13.5q20 0 54 -1t73 -5t80 -11.5t76 -19.5v-143q-80 25 -157 31t-130 6q-254 0 -254 -156q0 -53 19.5 -83t53.5 -44t77 -17t90 -5q59 -2 126.5 -10.5t124 -39t94.5 -94t38 -176.5q0 -90 -37 -151.5t-99.5 -100.5 t-146.5 -56.5t-176 -17.5q-20 0 -60 2.5t-88.5 8.5t-95.5 15t-84 24v151q41 -14 88 -23.5t92.5 -15.5t85 -8t66.5 -2q82 0 136.5 11.5t87 33t45 52t12.5 71.5q0 57 -19.5 89t-53.5 46t-77 17.5t-90 5.5q-59 2 -127 10t-125 38.5t-94 94t-37 174.5z" />
<glyph unicode="t" horiz-adv-x="827" d="M61 907v119l197 21l43 231h115l-2 -234h348v-137h-350v-569q0 -59 4 -100t20.5 -66t49 -35t92.5 -10q20 0 46.5 3t55.5 8t54.5 12.5t43.5 17.5v-143q-49 -23 -116.5 -32t-135.5 -9q-82 0 -136 16t-87 57t-46 110t-13 175v565h-183z" />
<glyph unicode="u" horiz-adv-x="1206" d="M156 307v737h168v-702q0 -117 43 -165t161 -48q96 0 183.5 44t152.5 128v743h168v-1044h-121l-24 147h-2q-90 -92 -191.5 -128.5t-206.5 -36.5q-96 0 -159.5 20.5t-102.5 60t-54 101t-15 143.5z" />
<glyph unicode="v" horiz-adv-x="1056" d="M29 1044h180l217 -591q29 -78 56.5 -162t47.5 -146h5q20 61 47.5 145.5t56.5 162.5l217 591h172l-395 -1044h-209z" />
<glyph unicode="w" horiz-adv-x="1593" d="M35 1044h172l158 -528q12 -39 24 -85t23.5 -92t22.5 -88t20 -73h4q8 29 22.5 69t31.5 86t33.5 92t33.5 87l139 362l-66 170h176l199 -534q14 -39 29.5 -84t32 -90t31 -86t24.5 -72h4q8 31 18.5 73t21.5 88t23.5 92t24.5 87l158 526h166l-320 -1044h-186l-258 670h-2 l-254 -670h-187z" />
<glyph unicode="x" horiz-adv-x="978" d="M8 0l381 528l-369 516h199l273 -387l274 387h192l-370 -514l383 -530h-203l-281 399l-282 -399h-197z" />
<glyph unicode="y" horiz-adv-x="1054" d="M29 1044h180l213 -536q12 -33 27.5 -72t30 -76.5t27.5 -74.5t23 -66h5q10 29 23 66t27.5 74.5t30 76.5t27.5 72l213 536h170l-561 -1388h-174l151 373z" />
<glyph unicode="z" horiz-adv-x="937" d="M68 0v106l573 797v4h-545v137h762v-106l-573 -797v-4h567v-137h-784z" />
<glyph unicode="{" horiz-adv-x="679" d="M139 621v41l107 104q-2 63 -8.5 124.5t-12.5 116t-10 99.5t-4 76q0 78 13.5 137t49 98t98 58.5t158.5 19.5h28.5t31.5 -2v-137h-27q-70 0 -107.5 -9.5t-55 -29t-20.5 -52t-3 -77.5q0 -111 14.5 -209t14.5 -178q0 -51 -10.5 -91t-39.5 -69q29 -29 39.5 -73t10.5 -97 q0 -86 -14.5 -190.5t-14.5 -214.5q0 -47 3 -79t20.5 -51.5t55.5 -28.5t107 -9h27v-138q-16 -2 -30.5 -2h-29.5q-96 0 -158.5 19.5t-98 58.5t-49 98.5t-13.5 137.5q0 31 5 80t11 109.5t11.5 126t7.5 128.5z" />
<glyph unicode="|" horiz-adv-x="1036" d="M446 -174v1737h144v-1737h-144z" />
<glyph unicode="}" horiz-adv-x="679" d="M90 -102h27q70 0 107.5 9t55 28.5t20.5 51t3 79.5q0 111 -14.5 215t-14.5 190q0 53 10.5 97t39.5 73q-29 29 -39.5 69t-10.5 91q0 80 14.5 178t14.5 209q0 45 -3 77.5t-20.5 52t-55.5 29t-107 9.5h-27v137q16 2 30.5 2h29.5q96 0 158.5 -19.5t98 -58.5t49 -98t13.5 -137 q0 -31 -4 -76t-10 -99.5t-12.5 -116t-8.5 -124.5l107 -104v-41l-107 -105q2 -63 7 -128.5t11.5 -126t11.5 -110t5 -79.5q0 -78 -13.5 -137.5t-49 -98.5t-98 -58.5t-158.5 -19.5h-29t-31 2v138z" />
<glyph unicode="~" horiz-adv-x="1245" d="M115 590v145q53 35 128.5 60.5t149.5 25.5q57 0 114.5 -13t115 -30.5t114 -31t113.5 -13.5q66 0 139.5 22.5t140.5 63.5v-149q-53 -35 -127.5 -58.5t-150.5 -23.5q-57 0 -114.5 13t-115 30.5t-114.5 31t-113 13.5q-66 0 -139.5 -22.5t-140.5 -63.5z" />
<glyph unicode="&#xa1;" horiz-adv-x="557" d="M170 825v219h217v-219h-217zM182 -344l27 946h139l27 -946h-193z" />
<glyph unicode="&#xa2;" horiz-adv-x="1007" d="M139 569q0 129 20.5 236.5t73 185.5t140.5 123t221 51l55 224h158l-57 -230q33 -4 66.5 -11t68.5 -20v-143q-66 25 -126.5 31t-111.5 6q-96 0 -159.5 -28.5t-101.5 -86t-53.5 -141.5t-15.5 -197q0 -109 15.5 -191.5t54.5 -138t101.5 -84t158.5 -28.5q53 0 124 10t144 39 v-151q-82 -29 -151.5 -39.5t-134.5 -10.5q-23 0 -41.5 1t-38.5 4l-53 -222h-160l63 256q-135 55 -197.5 190.5t-62.5 364.5z" />
<glyph unicode="&#xa3;" horiz-adv-x="1138" d="M137 8v125q20 2 47 5t49.5 13.5t40 30t21.5 54.5l33 288h-148v138h162l10 90q12 100 33 177t61.5 129t108.5 79.5t172 27.5q76 0 137.5 -8t130.5 -37v-143q-70 29 -127 37t-127 8q-63 0 -102 -16.5t-60.5 -49t-32.5 -83t-20 -117.5l-10 -94h299v-138h-315l-33 -317 q53 -39 135 -58.5t158 -19.5q53 0 132 7t146 24v-140q-68 -18 -152.5 -26t-156.5 -8q-80 0 -166 18.5t-151 56.5q-35 -35 -78 -49t-84 -14q-33 0 -56.5 1t-56.5 9z" />
<glyph unicode="&#xa4;" horiz-adv-x="1757" d="M174 100l219 217q-51 72 -77.5 164t-26.5 215t27.5 214t76.5 161l-219 219l109 109l217 -217q76 57 174 83.5t205 26.5q104 0 202.5 -26.5t175.5 -83.5l216 217l110 -109l-219 -219q49 -70 76.5 -161t27.5 -214t-27.5 -215t-76.5 -164l219 -217l-110 -108l-216 215 q-78 -55 -175 -82t-203 -27t-203.5 27t-175.5 82l-217 -215zM459 696q0 -131 35.5 -219t94 -140t134.5 -73.5t156 -21.5t155.5 21.5t134 73.5t94 140t35.5 219t-35.5 218t-94 139.5t-134.5 74t-155 21.5q-80 0 -156 -21.5t-134.5 -74t-94 -139.5t-35.5 -218z" />
<glyph unicode="&#xa5;" horiz-adv-x="1120" d="M66 1143h184l307 -553h4l322 553h172l-226 -379h189v-127h-264l-64 -109h328v-127h-379v-401h-168v401h-377v127h326l-64 109h-262v127h189z" />
<glyph unicode="&#xa6;" horiz-adv-x="1036" d="M446 -174v809h144v-809h-144zM446 780v783h144v-783h-144z" />
<glyph unicode="&#xa7;" horiz-adv-x="1054" d="M127 606q0 84 29.5 142.5t70.5 87.5q-43 39 -70.5 98t-27.5 139q0 104 37 171t96.5 103.5t137 51t161.5 14.5q20 0 54 -1t73 -6t80 -12.5t76 -19.5v-141q-80 25 -157 31t-130 6q-129 0 -191.5 -41t-62.5 -154q0 -74 43 -112q33 -31 89.5 -46.5t121 -29t130 -29.5 t119.5 -51t88 -94.5t34 -155.5q0 -80 -27 -132t-70 -101q41 -35 68 -89.5t27 -138.5q0 -106 -37 -176t-99.5 -111.5t-146.5 -58t-176 -16.5q-20 0 -60 2t-88.5 8t-95.5 15.5t-84 23.5v151q41 -14 88 -23t92.5 -15.5t85 -8.5t66.5 -2q82 0 136.5 10.5t87 34t45 61.5t12.5 91 q0 72 -45 117q-35 35 -91.5 50t-121 27.5t-130 27.5t-118.5 49t-86 93.5t-33 159.5zM301 606q0 -66 37 -99.5t95.5 -51t129 -27.5t137.5 -31q54 48 54 154q0 68 -36 103.5t-91.5 54t-124 29t-133.5 28.5q-68 -49 -68 -160z" />
<glyph unicode="&#xa8;" d="M360 1202v176h183v-176h-183zM750 1202v176h182v-176h-182z" />
<glyph unicode="&#xa9;" horiz-adv-x="1744" d="M143 694q0 168 48.5 301t140.5 226.5t228 142.5t312 49t312.5 -49t228.5 -142.5t140.5 -226.5t48.5 -301t-48.5 -301t-140.5 -226t-228 -142.5t-313 -49.5q-176 0 -312 49.5t-228 142.5t-140.5 226t-48.5 301zM281 694q0 -137 36.5 -247.5t110.5 -188.5t184.5 -120 t259.5 -42q150 0 260.5 42t184.5 120t110.5 188.5t36.5 247.5t-36.5 248t-110.5 188.5t-184.5 119.5t-260.5 42t-260 -42t-184 -119.5t-110.5 -188.5t-36.5 -248zM586 700q0 199 77.5 286t237.5 87q39 0 85 -6t93 -23v-106q-39 14 -82 20.5t-79 6.5q-104 0 -150.5 -56.5 t-46.5 -208.5t46 -208t151 -56q37 0 79.5 6.5t81.5 20.5v-107q-47 -16 -93 -22t-85 -6q-160 0 -237.5 86.5t-77.5 285.5z" />
<glyph unicode="&#xaa;" horiz-adv-x="829" d="M76 807q0 57 16.5 98t46.5 72q51 51 129 66.5t166 15.5q57 0 125 -6v82q0 39 -8 63.5t-27.5 36.5t-53.5 16t-85 4q-37 0 -100.5 -7t-149.5 -27v127q31 10 68 16t72.5 10t69.5 6t58 2q78 0 137.5 -9t98.5 -34.5t58.5 -71.5t19.5 -122v-570h-119l-16 70h-4 q-39 -41 -97.5 -61.5t-124.5 -20.5q-61 0 -117.5 15.5t-97.5 56.5q-66 66 -65 172zM240 805q0 -66 39.5 -89.5t99.5 -23.5q70 0 110.5 23.5t69.5 60.5v154q-41 4 -73.5 5t-45.5 1q-43 0 -72.5 -3t-49 -8t-32 -13.5t-24.5 -20.5q-10 -10 -16 -30.5t-6 -55.5z" />
<glyph unicode="&#xab;" horiz-adv-x="1177" d="M127 578l326 466h209l-320 -466l320 -474h-209zM516 578l326 466h209l-320 -466l320 -474h-209z" />
<glyph unicode="&#xac;" horiz-adv-x="1097" d="M82 1006v137h901v-584h-168v447h-733z" />
<glyph unicode="&#xad;" horiz-adv-x="786" d="M66 483v146h655v-146h-655z" />
<glyph unicode="&#xae;" horiz-adv-x="1744" d="M143 694q0 168 48.5 301t140.5 226.5t228 142.5t312 49t312.5 -49t228.5 -142.5t140.5 -226.5t48.5 -301t-48.5 -301t-140.5 -226t-228 -142.5t-313 -49.5q-176 0 -312 49.5t-228 142.5t-140.5 226t-48.5 301zM281 694q0 -137 36.5 -247.5t110.5 -188.5t184.5 -120 t259.5 -42q150 0 260.5 42t184.5 120t110.5 188.5t36.5 247.5t-36.5 248t-110.5 188.5t-184.5 119.5t-260.5 42t-260 -42t-184 -119.5t-110.5 -188.5t-36.5 -248zM610 344v713h277q145 0 213.5 -47t68.5 -183q0 -39 -11 -74.5t-30.5 -64.5t-45 -48t-54.5 -26l137 -270h-137 l-123 250h-170v-250h-125zM737 698h170q41 0 66.5 5.5t41 20.5t21.5 42t6 68q0 63 -28.5 90.5t-106.5 27.5h-170v-254z" />
<glyph unicode="&#xaf;" d="M274 1227v139h678v-139h-678z" />
<glyph unicode="&#xb0;" horiz-adv-x="888" d="M84 1081q0 84 27.5 146.5t76 103.5t114 61.5t142.5 20.5q76 0 142.5 -20.5t115 -61.5t76 -103.5t27.5 -146.5t-27.5 -146.5t-76 -103t-115 -61t-142.5 -20.5q-78 0 -143 20.5t-113.5 61t-76 103t-27.5 146.5zM246 1081q0 -104 53 -151t145 -47t145.5 47t53.5 151 t-53 153.5t-146 49.5q-92 0 -145 -49t-53 -154z" />
<glyph unicode="&#xb1;" horiz-adv-x="1191" d="M115 0v145h962v-145h-962zM115 698v146h399v340h162v-340h401v-146h-401v-340h-162v340h-399z" />
<glyph unicode="&#xb2;" horiz-adv-x="620" d="M53 750q168 139 251 240.5t83 199.5q0 102 -121 102q-43 0 -94 -9t-96 -23v110q37 10 88 20.5t108 10.5q55 0 102.5 -10.5t82.5 -35t54 -64.5t19 -99q0 -104 -77.5 -211t-204.5 -221v-2h53q23 0 46.5 1t39.5 1h158v-105h-488z" />
<glyph unicode="&#xb3;" horiz-adv-x="638" d="M74 680v113q59 -23 117.5 -31t89.5 -8q53 0 94 24.5t41 91.5q0 29 -6.5 47.5t-16.5 30.5q-16 20 -37.5 24.5t-46.5 4.5h-141v104h137q20 0 40 5.5t36 21.5q25 25 25 78q0 41 -24 74.5t-95 33.5q-41 0 -91.5 -9t-99.5 -23v110q51 16 102.5 22.5t94.5 6.5 q135 0 196.5 -56.5t61.5 -142.5q0 -57 -23.5 -98t-62.5 -70v-2q41 -23 69.5 -59.5t28.5 -100.5q0 -61 -21.5 -105t-60.5 -71.5t-90 -40t-110 -12.5q-43 0 -101.5 9.5t-105.5 27.5z" />
<glyph unicode="&#xb4;" d="M492 1159l221 230h223l-287 -230h-157z" />
<glyph unicode="&#xb6;" horiz-adv-x="1226" d="M125 684q0 119 38 205t106.5 142t164.5 83t213 27h455v-146h-184v-1339h-187v1339h-133v-762h-16q-94 2 -177 29t-145.5 81t-98.5 139t-36 202z" />
<glyph unicode="&#xb7;" horiz-adv-x="557" d="M170 446v220h217v-220h-217z" />
<glyph unicode="&#xb8;" d="M424 -225q35 -10 71.5 -13.5t61.5 -3.5q59 0 85 11.5t26 37.5q0 27 -36 38.5t-73 15.5l-12 49l41 90h147l-33 -76q61 -16 93 -46t32 -83q0 -78 -70.5 -114.5t-183.5 -36.5q-23 0 -62.5 4t-86.5 16v111z" />
<glyph unicode="&#xb9;" horiz-adv-x="442" d="M10 1266v98l307 35v-744h-143v613z" />
<glyph unicode="&#xba;" horiz-adv-x="917" d="M84 971q0 117 26.5 196.5t76 126.5t119 67.5t153.5 20.5q86 0 154.5 -21.5t117.5 -69.5t76 -127t27 -193q0 -115 -27 -194t-76 -127t-117.5 -69.5t-154.5 -21.5q-84 0 -153.5 20.5t-119 67.5t-76 127t-26.5 197zM250 971q0 -94 16.5 -149.5t50.5 -90.5q27 -27 62 -36 t80 -9t80.5 10.5t62.5 36.5q33 33 49.5 89.5t16.5 148.5q0 90 -15.5 146.5t-46.5 86.5q-29 29 -64.5 40t-82.5 11t-82 -11t-64 -40q-31 -31 -47 -87t-16 -146z" />
<glyph unicode="&#xbb;" horiz-adv-x="1177" d="M127 104l319 474l-319 466h209l326 -466l-326 -474h-209zM516 104l320 474l-320 466h209l326 -466l-326 -474h-209z" />
<glyph unicode="&#xbc;" horiz-adv-x="1458" d="M10 1266v98l307 35v-744h-143v613zM55 0l981 1389h156l-981 -1389h-156zM852 260l264 473h146l-246 -461v-2l196 2l17 232h114v-230h87v-106h-87v-168h-141v168h-346z" />
<glyph unicode="&#xbd;" horiz-adv-x="1425" d="M10 1266v98l307 35v-744h-143v613zM55 0l981 1389h156l-981 -1389h-156zM858 94q168 139 251 240.5t83 200.5q0 102 -121 102q-43 0 -94 -9.5t-96 -23.5v111q37 10 88 20t108 10q55 0 102.5 -10t82 -34.5t54 -64.5t19.5 -99q0 -104 -77.5 -211t-204.5 -222v-2h53 q23 0 46.5 1t39.5 1h158v-104h-488z" />
<glyph unicode="&#xbe;" horiz-adv-x="1660" d="M74 680v113q59 -23 117.5 -31t89.5 -8q53 0 94 24.5t41 91.5q0 29 -6.5 47.5t-16.5 30.5q-16 20 -37.5 24.5t-46.5 4.5h-141v104h137q20 0 40 5.5t36 21.5q25 25 25 78q0 41 -24 74.5t-95 33.5q-41 0 -91.5 -9t-99.5 -23v110q51 16 102.5 22.5t94.5 6.5 q135 0 196.5 -56.5t61.5 -142.5q0 -57 -23.5 -98t-62.5 -70v-2q41 -23 69.5 -59.5t28.5 -100.5q0 -61 -21.5 -105t-60.5 -71.5t-90 -40t-110 -12.5q-43 0 -101.5 9.5t-105.5 27.5zM272 0l981 1389h156l-981 -1389h-156zM1055 260l264 473h145l-245 -461v-2l196 2l17 232h114 v-230h86v-106h-86v-168h-141v168h-346z" />
<glyph unicode="&#xbf;" horiz-adv-x="923" d="M86 4q0 100 40 170t106.5 118t154.5 75.5t186 44.5l7 190h155l8 -313q-61 -4 -142 -13.5t-152.5 -38t-122 -81t-50.5 -140.5q0 -45 16.5 -87t53.5 -73.5t96.5 -51t145.5 -19.5q23 0 56.5 3t71.5 8t78 14.5t76 21.5v-154q-84 -27 -170 -37t-151 -10q-121 0 -208 28 t-144.5 77t-84 117.5t-26.5 150.5zM547 825v219h217v-219h-217z" />
<glyph unicode="&#xc0;" horiz-adv-x="1300" d="M39 0l493 1389h234l496 -1389h-193l-119 342h-602l-117 -342h-192zM287 1733h223l221 -230h-158zM399 487h500l-176 517q-25 74 -40 123t-32 102h-4q-16 -53 -31.5 -102.5t-40.5 -122.5z" />
<glyph unicode="&#xc1;" horiz-adv-x="1300" d="M39 0l493 1389h234l496 -1389h-193l-119 342h-602l-117 -342h-192zM399 487h500l-176 517q-25 74 -40 123t-32 102h-4q-16 -53 -31.5 -102.5t-40.5 -122.5zM578 1503l221 230h223l-287 -230h-157z" />
<glyph unicode="&#xc2;" horiz-adv-x="1300" d="M39 0l493 1389h234l496 -1389h-193l-119 342h-602l-117 -342h-192zM344 1503l225 238h162l223 -238h-166l-139 144l-139 -144h-166zM399 487h500l-176 517q-25 74 -40 123t-32 102h-4q-16 -53 -31.5 -102.5t-40.5 -122.5z" />
<glyph unicode="&#xc3;" horiz-adv-x="1300" d="M39 0l493 1389h234l496 -1389h-193l-119 342h-602l-117 -342h-192zM309 1548v135q31 23 84 48.5t103 25.5q39 0 77.5 -11t76.5 -23.5t76 -23.5t77 -11q45 0 96 22.5t92 50.5v-135q-31 -23 -84 -47.5t-102 -24.5q-39 0 -79 10.5t-78 24t-75.5 23.5t-74.5 10 q-45 0 -96.5 -22.5t-92.5 -51.5zM399 487h500l-176 517q-25 74 -40 123t-32 102h-4q-16 -53 -31.5 -102.5t-40.5 -122.5z" />
<glyph unicode="&#xc4;" horiz-adv-x="1300" d="M39 0l493 1389h234l496 -1389h-193l-119 342h-602l-117 -342h-192zM362 1546v176h183v-176h-183zM399 487h500l-176 517q-25 74 -40 123t-32 102h-4q-16 -53 -31.5 -102.5t-40.5 -122.5zM752 1546v176h182v-176h-182z" />
<glyph unicode="&#xc5;" horiz-adv-x="1300" d="M39 0l493 1389h234l496 -1389h-193l-119 342h-602l-117 -342h-192zM399 487h500l-176 517q-25 74 -40 123t-32 102h-4q-16 -53 -31.5 -102.5t-40.5 -122.5zM467 1655q0 80 48 114.5t136 34.5t135.5 -34.5t47.5 -114.5t-47.5 -115t-135.5 -35t-136 35t-48 115zM575 1655 q0 -66 76 -66q74 0 74 66q0 68 -74 67q-76 0 -76 -67z" />
<glyph unicode="&#xc6;" horiz-adv-x="1947" d="M-125 0l1069 1389h909v-146h-651v-463h565v-145h-565v-490h668v-145h-854v342h-647l-260 -342h-234zM473 487h541v730h-4q-14 -20 -38 -55.5t-50.5 -74t-54 -76.5t-48.5 -65z" />
<glyph unicode="&#xc7;" horiz-adv-x="1134" d="M115 690q0 201 39 339t112.5 223t182 123t249.5 38q66 0 151 -8t185 -39v-154q-86 29 -163.5 38.5t-137.5 9.5q-102 0 -181 -25t-132 -89.5t-82 -174t-29 -277.5q0 -170 29 -278.5t82 -170t132 -85t181 -23.5q72 0 162 14.5t166 43.5v-162q-66 -29 -149 -40t-150 -16 l-23 -53q61 -16 93 -46t32 -83q0 -78 -70.5 -114.5t-183.5 -36.5q-23 0 -62.5 4t-86.5 16v111q35 -10 71.5 -13.5t61.5 -3.5q59 0 85 11.5t26 37.5q0 27 -36 38.5t-73 15.5l-12 49l30 70q-121 8 -214 52t-156.5 128t-96 215t-32.5 315z" />
<glyph unicode="&#xc8;" horiz-adv-x="1116" d="M184 0v1389h838v-146h-651v-463h565v-145h-565v-490h667v-145h-854zM305 1733h223l222 -230h-158z" />
<glyph unicode="&#xc9;" horiz-adv-x="1116" d="M184 0v1389h838v-146h-651v-463h565v-145h-565v-490h667v-145h-854zM520 1503l221 230h224l-287 -230h-158z" />
<glyph unicode="&#xca;" horiz-adv-x="1116" d="M184 0v1389h838v-146h-651v-463h565v-145h-565v-490h667v-145h-854zM305 1503l225 238h162l223 -238h-165l-140 144l-139 -144h-166z" />
<glyph unicode="&#xcb;" horiz-adv-x="1116" d="M184 0v1389h838v-146h-651v-463h565v-145h-565v-490h667v-145h-854zM326 1546v176h182v-176h-182zM715 1546v176h182v-176h-182z" />
<glyph unicode="&#xcc;" horiz-adv-x="555" d="M-90 1733h223l221 -230h-157zM184 0v1389h187v-1389h-187z" />
<glyph unicode="&#xcd;" horiz-adv-x="555" d="M184 0v1389h187v-1389h-187zM199 1503l221 230h223l-287 -230h-157z" />
<glyph unicode="&#xce;" horiz-adv-x="555" d="M-29 1503l226 238h161l224 -238h-166l-140 144l-139 -144h-166zM184 0v1389h187v-1389h-187z" />
<glyph unicode="&#xcf;" horiz-adv-x="555" d="M-8 1546v176h182v-176h-182zM184 0v1389h187v-1389h-187zM381 1546v176h182v-176h-182z" />
<glyph unicode="&#xd0;" horiz-adv-x="1431" d="M41 635v145h207v609h491q141 0 236.5 -32t169.5 -106q86 -86 129 -222t43 -335t-43 -335t-129 -222q-74 -74 -169 -105.5t-237 -31.5h-491v635h-207zM434 145h301q84 0 148.5 18.5t113.5 67.5q61 61 93 175t32 288t-31.5 288t-93.5 175q-49 49 -113.5 67.5t-148.5 18.5 h-301v-463h377v-145h-377v-490z" />
<glyph unicode="&#xd1;" horiz-adv-x="1452" d="M184 0v1389h199l541 -838q45 -70 80.5 -131.5t82.5 -145.5h7q-2 82 -3 178.5t-2.5 193.5t-1.5 189.5v170.5v383h181v-1389h-199l-541 838q-45 70 -80.5 131t-82.5 145h-7q2 -82 3 -178t2.5 -193.5t1.5 -190.5v-169v-383h-181zM385 1548v135q31 23 84 48.5t102 25.5 q39 0 78 -11t77 -23.5t76 -23.5t77 -11q45 0 96 22.5t92 50.5v-135q-31 -23 -84 -47.5t-102 -24.5q-39 0 -79 10.5t-78 24t-76 23.5t-75 10q-45 0 -96 -22.5t-92 -51.5z" />
<glyph unicode="&#xd2;" horiz-adv-x="1413" d="M115 694q0 168 27.5 301t95 226.5t181 142.5t288.5 49q174 0 287.5 -49t181 -142.5t95 -226.5t27.5 -301t-27.5 -301t-95 -226t-181 -142.5t-287.5 -49.5t-288 49.5t-181.5 142.5t-95 226t-27.5 301zM309 694q0 -143 18.5 -249.5t63.5 -176t122 -104.5t194 -35t193.5 35 t121.5 104.5t63.5 176t18.5 249.5t-18.5 250t-63.5 176.5t-122 104.5t-193 35q-117 0 -194 -35t-122 -104.5t-63.5 -176.5t-18.5 -250zM342 1733h223l221 -230h-157z" />
<glyph unicode="&#xd3;" horiz-adv-x="1413" d="M115 694q0 168 27.5 301t95 226.5t181 142.5t288.5 49q174 0 287.5 -49t181 -142.5t95 -226.5t27.5 -301t-27.5 -301t-95 -226t-181 -142.5t-287.5 -49.5t-288 49.5t-181.5 142.5t-95 226t-27.5 301zM309 694q0 -143 18.5 -249.5t63.5 -176t122 -104.5t194 -35t193.5 35 t121.5 104.5t63.5 176t18.5 249.5t-18.5 250t-63.5 176.5t-122 104.5t-193 35q-117 0 -194 -35t-122 -104.5t-63.5 -176.5t-18.5 -250zM616 1503l222 230h223l-287 -230h-158z" />
<glyph unicode="&#xd4;" horiz-adv-x="1413" d="M115 694q0 168 27.5 301t95 226.5t181 142.5t288.5 49q174 0 287.5 -49t181 -142.5t95 -226.5t27.5 -301t-27.5 -301t-95 -226t-181 -142.5t-287.5 -49.5t-288 49.5t-181.5 142.5t-95 226t-27.5 301zM309 694q0 -143 18.5 -249.5t63.5 -176t122 -104.5t194 -35t193.5 35 t121.5 104.5t63.5 176t18.5 249.5t-18.5 250t-63.5 176.5t-122 104.5t-193 35q-117 0 -194 -35t-122 -104.5t-63.5 -176.5t-18.5 -250zM401 1503l226 238h161l224 -238h-166l-139 144l-140 -144h-166z" />
<glyph unicode="&#xd5;" horiz-adv-x="1413" d="M115 694q0 168 27.5 301t95 226.5t181 142.5t288.5 49q174 0 287.5 -49t181 -142.5t95 -226.5t27.5 -301t-27.5 -301t-95 -226t-181 -142.5t-287.5 -49.5t-288 49.5t-181.5 142.5t-95 226t-27.5 301zM309 694q0 -143 18.5 -249.5t63.5 -176t122 -104.5t194 -35t193.5 35 t121.5 104.5t63.5 176t18.5 249.5t-18.5 250t-63.5 176.5t-122 104.5t-193 35q-117 0 -194 -35t-122 -104.5t-63.5 -176.5t-18.5 -250zM367 1548v135q31 23 84 48.5t102 25.5q39 0 78 -11t76.5 -23.5t75.5 -23.5t77 -11q45 0 96.5 22.5t92.5 50.5v-135q-31 -23 -84.5 -47.5 t-102.5 -24.5q-39 0 -79 10.5t-77.5 24t-75.5 23.5t-75 10q-45 0 -96 -22.5t-92 -51.5z" />
<glyph unicode="&#xd6;" horiz-adv-x="1413" d="M115 694q0 168 27.5 301t95 226.5t181 142.5t288.5 49q174 0 287.5 -49t181 -142.5t95 -226.5t27.5 -301t-27.5 -301t-95 -226t-181 -142.5t-287.5 -49.5t-288 49.5t-181.5 142.5t-95 226t-27.5 301zM309 694q0 -143 18.5 -249.5t63.5 -176t122 -104.5t194 -35t193.5 35 t121.5 104.5t63.5 176t18.5 249.5t-18.5 250t-63.5 176.5t-122 104.5t-193 35q-117 0 -194 -35t-122 -104.5t-63.5 -176.5t-18.5 -250zM422 1546v176h182v-176h-182zM811 1546v176h182v-176h-182z" />
<glyph unicode="&#xd7;" horiz-adv-x="1245" d="M147 193l365 364l-362 365l108 108l365 -362l356 358l111 -108l-359 -359l367 -366l-109 -111l-368 367l-365 -365z" />
<glyph unicode="&#xd8;" horiz-adv-x="1413" d="M115 694q0 168 27.5 301t95 226.5t181 142.5t288.5 49q47 0 88 -4t77 -10l58 162h155l-71 -207q162 -78 223 -246t61 -414q0 -168 -27.5 -301t-95 -226t-181 -142.5t-287.5 -49.5q-94 0 -164 15l-58 -166h-155l71 209q-82 37 -136 99.5t-88 146t-48 188t-14 227.5z M309 694q0 -188 32 -312t116 -187l364 1054q-27 4 -54.5 7.5t-59.5 3.5q-117 0 -194 -35t-122 -104.5t-63.5 -176.5t-18.5 -250zM594 137q25 -4 52.5 -6t60.5 -2q117 0 193.5 35t121.5 104.5t63.5 176t18.5 249.5q0 186 -32 309t-116 187z" />
<glyph unicode="&#xd9;" horiz-adv-x="1363" d="M154 473v916h186v-953q0 -53 12.5 -116.5t65.5 -116.5q43 -43 103.5 -63.5t160.5 -20.5t160.5 20.5t103.5 63.5q53 53 65.5 116.5t12.5 116.5v953h186v-916q0 -100 -22.5 -196.5t-97.5 -172.5q-66 -66 -163.5 -97.5t-244.5 -31.5t-244.5 32t-163.5 97q-76 76 -98 172.5 t-22 196.5zM342 1733h223l221 -230h-157z" />
<glyph unicode="&#xda;" horiz-adv-x="1363" d="M154 473v916h186v-953q0 -53 12.5 -116.5t65.5 -116.5q43 -43 103.5 -63.5t160.5 -20.5t160.5 20.5t103.5 63.5q53 53 65.5 116.5t12.5 116.5v953h186v-916q0 -100 -22.5 -196.5t-97.5 -172.5q-66 -66 -163.5 -97.5t-244.5 -31.5t-244.5 32t-163.5 97q-76 76 -98 172.5 t-22 196.5zM592 1503l221 230h223l-286 -230h-158z" />
<glyph unicode="&#xdb;" horiz-adv-x="1363" d="M154 473v916h186v-953q0 -53 12.5 -116.5t65.5 -116.5q43 -43 103.5 -63.5t160.5 -20.5t160.5 20.5t103.5 63.5q53 53 65.5 116.5t12.5 116.5v953h186v-916q0 -100 -22.5 -196.5t-97.5 -172.5q-66 -66 -163.5 -97.5t-244.5 -31.5t-244.5 32t-163.5 97q-76 76 -98 172.5 t-22 196.5zM377 1503l225 238h162l223 -238h-166l-139 144l-139 -144h-166z" />
<glyph unicode="&#xdc;" horiz-adv-x="1363" d="M154 473v916h186v-953q0 -53 12.5 -116.5t65.5 -116.5q43 -43 103.5 -63.5t160.5 -20.5t160.5 20.5t103.5 63.5q53 53 65.5 116.5t12.5 116.5v953h186v-916q0 -100 -22.5 -196.5t-97.5 -172.5q-66 -66 -163.5 -97.5t-244.5 -31.5t-244.5 32t-163.5 97q-76 76 -98 172.5 t-22 196.5zM397 1546v176h183v-176h-183zM786 1546v176h183v-176h-183z" />
<glyph unicode="&#xdd;" horiz-adv-x="1177" d="M8 1389h203l381 -684h2l383 684h192l-487 -848v-541h-186v539zM492 1503l221 230h223l-287 -230h-157z" />
<glyph unicode="&#xde;" horiz-adv-x="1230" d="M184 0v1389h189v-265h276q154 0 250 -23.5t160 -86.5q111 -111 110 -340q0 -229 -110 -340q-63 -63 -159.5 -87t-250.5 -24h-278v-223h-187zM371 369h293q94 0 148 11t99 56q35 35 49.5 94.5t14.5 143.5t-18.5 143.5t-53.5 93.5q-23 23 -45 36.5t-50 20.5t-62.5 9 t-81.5 2h-293v-610z" />
<glyph unicode="&#xdf;" horiz-adv-x="1353" d="M174 0v952q0 238 124 350.5t366 112.5q100 0 174.5 -23.5t124 -64.5t74 -96t24.5 -121q0 -59 -19.5 -99t-52.5 -73q-47 -47 -109.5 -80t-101.5 -72q-16 -16 -23 -31t-7 -40q0 -31 13 -48.5t33.5 -26.5t46 -13t52.5 -4q61 -2 131 -10.5t128 -40t97 -95t39 -176.5 q0 -90 -34.5 -151.5t-93 -100.5t-136.5 -56.5t-164 -17.5q-20 0 -59 2.5t-84 8.5t-92 15t-82 24v151q39 -14 84 -23.5t89 -15.5t83 -8t65 -2q137 0 193.5 44t56.5 124q0 57 -22.5 90t-55 47t-70.5 17.5t-69 3.5q-47 0 -103.5 8t-105.5 35.5t-82 80t-33 142.5q0 49 20.5 88 t49.5 67q25 25 52.5 45.5t56 38t55.5 35t45 35.5q35 35 35 88q0 39 -19.5 66.5t-50.5 46t-68.5 27t-74.5 8.5q-90 0 -152.5 -21.5t-102.5 -58.5t-58.5 -85t-18.5 -104v-995h-168z" />
<glyph unicode="&#xe0;" horiz-adv-x="1085" d="M100 299q0 76 20.5 129t59.5 92q66 66 168 85.5t219 19.5q16 0 73.5 -2t121.5 -7v129q0 59 -12.5 95.5t-42 54.5t-79.5 24.5t-128 6.5q-55 0 -136 -7.5t-182 -29.5v143q37 10 84 17.5t93.5 11.5t90.5 6t74 2q100 0 177 -12.5t127.5 -46t76 -94t25.5 -156.5v-760h-117 l-25 109h-2q-66 -61 -147.5 -94t-177.5 -33q-80 0 -155 22.5t-124 69.5q-41 41 -61.5 100t-20.5 125zM219 1389h223l222 -230h-158zM276 295q0 -49 16.5 -82t46.5 -51.5t68.5 -26.5t84.5 -8q106 0 168.5 36t101.5 93v225q-61 6 -114.5 8.5t-69.5 2.5q-66 0 -108 -4.5 t-71.5 -12.5t-48 -21.5t-37.5 -29.5q-16 -16 -26.5 -46t-10.5 -83z" />
<glyph unicode="&#xe1;" horiz-adv-x="1085" d="M100 299q0 76 20.5 129t59.5 92q66 66 168 85.5t219 19.5q16 0 73.5 -2t121.5 -7v129q0 59 -12.5 95.5t-42 54.5t-79.5 24.5t-128 6.5q-55 0 -136 -7.5t-182 -29.5v143q37 10 84 17.5t93.5 11.5t90.5 6t74 2q100 0 177 -12.5t127.5 -46t76 -94t25.5 -156.5v-760h-117 l-25 109h-2q-66 -61 -147.5 -94t-177.5 -33q-80 0 -155 22.5t-124 69.5q-41 41 -61.5 100t-20.5 125zM276 295q0 -49 16.5 -82t46.5 -51.5t68.5 -26.5t84.5 -8q106 0 168.5 36t101.5 93v225q-61 6 -114.5 8.5t-69.5 2.5q-66 0 -108 -4.5t-71.5 -12.5t-48 -21.5t-37.5 -29.5 q-16 -16 -26.5 -46t-10.5 -83zM432 1159l221 230h224l-287 -230h-158z" />
<glyph unicode="&#xe2;" horiz-adv-x="1085" d="M100 299q0 76 20.5 129t59.5 92q66 66 168 85.5t219 19.5q16 0 73.5 -2t121.5 -7v129q0 59 -12.5 95.5t-42 54.5t-79.5 24.5t-128 6.5q-55 0 -136 -7.5t-182 -29.5v143q37 10 84 17.5t93.5 11.5t90.5 6t74 2q100 0 177 -12.5t127.5 -46t76 -94t25.5 -156.5v-760h-117 l-25 109h-2q-66 -61 -147.5 -94t-177.5 -33q-80 0 -155 22.5t-124 69.5q-41 41 -61.5 100t-20.5 125zM246 1159l225 238h162l223 -238h-166l-139 144l-139 -144h-166zM276 295q0 -49 16.5 -82t46.5 -51.5t68.5 -26.5t84.5 -8q106 0 168.5 36t101.5 93v225q-61 6 -114.5 8.5 t-69.5 2.5q-66 0 -108 -4.5t-71.5 -12.5t-48 -21.5t-37.5 -29.5q-16 -16 -26.5 -46t-10.5 -83z" />
<glyph unicode="&#xe3;" horiz-adv-x="1085" d="M100 299q0 76 20.5 129t59.5 92q66 66 168 85.5t219 19.5q16 0 73.5 -2t121.5 -7v129q0 59 -12.5 95.5t-42 54.5t-79.5 24.5t-128 6.5q-55 0 -136 -7.5t-182 -29.5v143q37 10 84 17.5t93.5 11.5t90.5 6t74 2q100 0 177 -12.5t127.5 -46t76 -94t25.5 -156.5v-760h-117 l-25 109h-2q-66 -61 -147.5 -94t-177.5 -33q-80 0 -155 22.5t-124 69.5q-41 41 -61.5 100t-20.5 125zM221 1204v135q31 23 84 48.5t103 25.5q39 0 77.5 -11t76.5 -23.5t76 -24t77 -11.5q45 0 96 23t92 51v-135q-31 -23 -84 -47.5t-102 -24.5q-39 0 -79 10.5t-78 23.5 t-76 23.5t-74 10.5q-45 0 -96.5 -22.5t-92.5 -51.5zM276 295q0 -49 16.5 -82t46.5 -51.5t68.5 -26.5t84.5 -8q106 0 168.5 36t101.5 93v225q-61 6 -114.5 8.5t-69.5 2.5q-66 0 -108 -4.5t-71.5 -12.5t-48 -21.5t-37.5 -29.5q-16 -16 -26.5 -46t-10.5 -83z" />
<glyph unicode="&#xe4;" horiz-adv-x="1085" d="M100 299q0 76 20.5 129t59.5 92q66 66 168 85.5t219 19.5q16 0 73.5 -2t121.5 -7v129q0 59 -12.5 95.5t-42 54.5t-79.5 24.5t-128 6.5q-55 0 -136 -7.5t-182 -29.5v143q37 10 84 17.5t93.5 11.5t90.5 6t74 2q100 0 177 -12.5t127.5 -46t76 -94t25.5 -156.5v-760h-117 l-25 109h-2q-66 -61 -147.5 -94t-177.5 -33q-80 0 -155 22.5t-124 69.5q-41 41 -61.5 100t-20.5 125zM254 1202v176h182v-176h-182zM276 295q0 -49 16.5 -82t46.5 -51.5t68.5 -26.5t84.5 -8q106 0 168.5 36t101.5 93v225q-61 6 -114.5 8.5t-69.5 2.5q-66 0 -108 -4.5 t-71.5 -12.5t-48 -21.5t-37.5 -29.5q-16 -16 -26.5 -46t-10.5 -83zM643 1202v176h182v-176h-182z" />
<glyph unicode="&#xe5;" horiz-adv-x="1085" d="M100 299q0 76 20.5 129t59.5 92q66 66 168 85.5t219 19.5q16 0 73.5 -2t121.5 -7v129q0 59 -12.5 95.5t-42 54.5t-79.5 24.5t-128 6.5q-55 0 -136 -7.5t-182 -29.5v143q37 10 84 17.5t93.5 11.5t90.5 6t74 2q100 0 177 -12.5t127.5 -46t76 -94t25.5 -156.5v-760h-117 l-25 109h-2q-66 -61 -147.5 -94t-177.5 -33q-80 0 -155 22.5t-124 69.5q-41 41 -61.5 100t-20.5 125zM276 295q0 -49 16.5 -82t46.5 -51.5t68.5 -26.5t84.5 -8q106 0 168.5 36t101.5 93v225q-61 6 -114.5 8.5t-69.5 2.5q-66 0 -108 -4.5t-71.5 -12.5t-48 -21.5t-37.5 -29.5 q-16 -16 -26.5 -46t-10.5 -83zM369 1311q0 80 48 114.5t136 34.5t135 -34.5t47 -114.5t-47 -115t-135 -35t-136 35t-48 115zM477 1311q0 -66 76 -66q74 0 74 66q0 68 -74 67q-76 0 -76 -67z" />
<glyph unicode="&#xe6;" horiz-adv-x="1755" d="M100 299q0 76 20.5 129t59.5 92q66 66 168.5 85.5t218.5 19.5q16 0 73.5 -2t121.5 -7v129q0 59 -12.5 95.5t-42 54.5t-79.5 24.5t-128 6.5q-55 0 -136 -7.5t-182 -29.5v143q37 10 84 17.5t93.5 11.5t90.5 6t74 2q80 0 139.5 -6t102.5 -21.5t73.5 -40t53.5 -61.5 q66 70 150.5 99.5t191.5 29.5q219 0 316.5 -111.5t97.5 -326.5q0 -18 -3.5 -63.5t-7.5 -80.5h-686q4 -98 22.5 -171.5t65.5 -120.5q76 -76 254 -76q66 0 148 9t162 40v-143q-37 -14 -82 -23.5t-90.5 -15.5t-88.5 -8.5t-77 -2.5q-297 0 -412 175q-35 -47 -83 -80 t-101.5 -52.5t-107.5 -27.5t-101 -8q-80 0 -155 22.5t-124 69.5q-41 41 -61.5 100t-20.5 125zM276 295q0 -49 16.5 -82t46.5 -51.5t68.5 -26.5t84.5 -8q106 0 186 49t119 107l-2 4q-10 41 -15.5 86t-9.5 98v6q-61 6 -118.5 10.5t-73.5 4.5q-66 0 -108 -4.5t-71.5 -12.5 t-48 -21.5t-37.5 -29.5q-16 -16 -26.5 -46t-10.5 -83zM956 625h525q2 20 2 29.5v13.5q0 66 -13.5 117t-46.5 83q-31 31 -80 44.5t-110 13.5q-53 0 -103.5 -13.5t-89.5 -52.5q-68 -68 -84 -235z" />
<glyph unicode="&#xe7;" horiz-adv-x="962" d="M113 522q0 123 22.5 223.5t77.5 173t149.5 111.5t239.5 39q53 0 118.5 -6t137.5 -31v-143q-66 25 -126 31t-111 6q-80 0 -138.5 -16.5t-99.5 -57.5q-47 -47 -69.5 -131t-22.5 -199q0 -117 21.5 -194.5t74.5 -130.5q41 -41 98.5 -55.5t135.5 -14.5q53 0 123.5 10t144.5 39 v-151q-68 -25 -127.5 -35t-114.5 -13l-22 -53q61 -16 93 -46t32 -83q0 -78 -71 -114.5t-183 -36.5q-23 0 -63 4t-87 16v111q35 -10 72 -13.5t61 -3.5q59 0 85 11.5t26 37.5q0 27 -36 38.5t-73 15.5l-12 49l33 72q-203 23 -296 153.5t-93 386.5z" />
<glyph unicode="&#xe8;" horiz-adv-x="1097" d="M113 522q0 154 34.5 258.5t96 169t146.5 92t188 27.5q219 0 316 -111.5t97 -326.5q0 -18 -3 -63.5t-7 -80.5h-686q4 -98 22.5 -171.5t65.5 -120.5q76 -76 254 -76q66 0 147.5 9t161.5 40v-143q-37 -14 -82 -23.5t-90 -15.5t-88 -8.5t-78 -2.5q-262 0 -378.5 132.5 t-116.5 414.5zM223 1389h223l222 -230h-158zM299 625h524q2 20 2 29.5v13.5q0 66 -13 117t-46 83q-31 31 -80.5 44.5t-110.5 13.5q-53 0 -103 -13.5t-89 -52.5q-68 -68 -84 -235z" />
<glyph unicode="&#xe9;" horiz-adv-x="1097" d="M113 522q0 154 34.5 258.5t96 169t146.5 92t188 27.5q219 0 316 -111.5t97 -326.5q0 -18 -3 -63.5t-7 -80.5h-686q4 -98 22.5 -171.5t65.5 -120.5q76 -76 254 -76q66 0 147.5 9t161.5 40v-143q-37 -14 -82 -23.5t-90 -15.5t-88 -8.5t-78 -2.5q-262 0 -378.5 132.5 t-116.5 414.5zM299 625h524q2 20 2 29.5v13.5q0 66 -13 117t-46 83q-31 31 -80.5 44.5t-110.5 13.5q-53 0 -103 -13.5t-89 -52.5q-68 -68 -84 -235zM498 1159l221 230h223l-287 -230h-157z" />
<glyph unicode="&#xea;" horiz-adv-x="1097" d="M113 522q0 154 34.5 258.5t96 169t146.5 92t188 27.5q219 0 316 -111.5t97 -326.5q0 -18 -3 -63.5t-7 -80.5h-686q4 -98 22.5 -171.5t65.5 -120.5q76 -76 254 -76q66 0 147.5 9t161.5 40v-143q-37 -14 -82 -23.5t-90 -15.5t-88 -8.5t-78 -2.5q-262 0 -378.5 132.5 t-116.5 414.5zM268 1159l226 238h161l224 -238h-166l-140 144l-139 -144h-166zM299 625h524q2 20 2 29.5v13.5q0 66 -13 117t-46 83q-31 31 -80.5 44.5t-110.5 13.5q-53 0 -103 -13.5t-89 -52.5q-68 -68 -84 -235z" />
<glyph unicode="&#xeb;" horiz-adv-x="1097" d="M113 522q0 154 34.5 258.5t96 169t146.5 92t188 27.5q219 0 316 -111.5t97 -326.5q0 -18 -3 -63.5t-7 -80.5h-686q4 -98 22.5 -171.5t65.5 -120.5q76 -76 254 -76q66 0 147.5 9t161.5 40v-143q-37 -14 -82 -23.5t-90 -15.5t-88 -8.5t-78 -2.5q-262 0 -378.5 132.5 t-116.5 414.5zM289 1202v176h182v-176h-182zM299 625h524q2 20 2 29.5v13.5q0 66 -13 117t-46 83q-31 31 -80.5 44.5t-110.5 13.5q-53 0 -103 -13.5t-89 -52.5q-68 -68 -84 -235zM678 1202v176h182v-176h-182z" />
<glyph unicode="&#xec;" horiz-adv-x="516" d="M-117 1389h223l222 -230h-158zM174 0v1044h168v-1044h-168z" />
<glyph unicode="&#xed;" horiz-adv-x="516" d="M174 0v1044h168v-1044h-168zM186 1159l222 230h223l-287 -230h-158z" />
<glyph unicode="&#xee;" horiz-adv-x="516" d="M-47 1159l225 238h162l223 -238h-166l-139 144l-139 -144h-166zM174 0v1044h168v-1044h-168z" />
<glyph unicode="&#xef;" horiz-adv-x="516" d="M-27 1202v176h183v-176h-183zM174 0v1044h168v-1044h-168zM362 1202v176h183v-176h-183z" />
<glyph unicode="&#xf0;" horiz-adv-x="1200" d="M113 532q0 168 43 273.5t109.5 164t148.5 79t159 20.5q23 0 54.5 -3t65.5 -10t66.5 -19.5t59.5 -32.5l4 2q-29 74 -72.5 128t-97.5 91l-297 -135l-43 98l236 104q-29 16 -62.5 32.5t-74.5 29.5l116 82q41 -12 80 -28.5t86 -45.5l226 100l45 -98l-170 -76 q141 -123 216.5 -310t75.5 -460q0 -166 -40.5 -271.5t-109.5 -166t-159 -83t-190 -22.5q-92 0 -178 22.5t-151.5 84t-105.5 170t-40 280.5zM287 522q0 -123 21.5 -202.5t66.5 -124.5q41 -41 96 -58.5t127 -17.5t127 17.5t96 58.5q45 45 66.5 124.5t21.5 202.5t-21.5 203 t-66.5 125q-41 41 -96 58.5t-127 17.5t-127 -17.5t-96 -58.5q-45 -45 -66.5 -125t-21.5 -203z" />
<glyph unicode="&#xf1;" horiz-adv-x="1206" d="M174 0v1044h121l24 -147h3q90 92 191 129t206 37q96 0 159.5 -20.5t102.5 -60.5t54.5 -101.5t15.5 -143.5v-737h-168v702q0 117 -43 165t-162 48q-96 0 -183 -44t-153 -128v-743h-168zM272 1204v135q31 23 84.5 48.5t102.5 25.5q39 0 77.5 -11t76.5 -23.5t76 -24 t77 -11.5q45 0 96 23t92 51v-135q-31 -23 -84 -47.5t-102 -24.5q-39 0 -79 10.5t-78 23.5t-75.5 23.5t-74.5 10.5q-45 0 -96.5 -22.5t-92.5 -51.5z" />
<glyph unicode="&#xf2;" horiz-adv-x="1200" d="M113 522q0 156 34.5 260.5t99 168t153.5 91t200 27.5t200 -27.5t153.5 -91t99 -168t34.5 -260.5t-34.5 -260t-99 -167.5t-153.5 -91.5t-200 -28t-200 28t-153.5 91.5t-99 168t-34.5 259.5zM238 1389h223l221 -230h-158zM289 522q0 -123 21.5 -202.5t66.5 -124.5 q41 -41 96 -58.5t127 -17.5t127 17.5t96 58.5q45 45 66.5 124.5t21.5 202.5t-21.5 203t-66.5 125q-41 41 -96 58.5t-127 17.5t-127 -17.5t-96 -58.5q-45 -45 -66.5 -125t-21.5 -203z" />
<glyph unicode="&#xf3;" horiz-adv-x="1200" d="M113 522q0 156 34.5 260.5t99 168t153.5 91t200 27.5t200 -27.5t153.5 -91t99 -168t34.5 -260.5t-34.5 -260t-99 -167.5t-153.5 -91.5t-200 -28t-200 28t-153.5 91.5t-99 168t-34.5 259.5zM289 522q0 -123 21.5 -202.5t66.5 -124.5q41 -41 96 -58.5t127 -17.5t127 17.5 t96 58.5q45 45 66.5 124.5t21.5 202.5t-21.5 203t-66.5 125q-41 41 -96 58.5t-127 17.5t-127 -17.5t-96 -58.5q-45 -45 -66.5 -125t-21.5 -203zM518 1159l221 230h224l-287 -230h-158z" />
<glyph unicode="&#xf4;" horiz-adv-x="1200" d="M113 522q0 156 34.5 260.5t99 168t153.5 91t200 27.5t200 -27.5t153.5 -91t99 -168t34.5 -260.5t-34.5 -260t-99 -167.5t-153.5 -91.5t-200 -28t-200 28t-153.5 91.5t-99 168t-34.5 259.5zM289 522q0 -123 21.5 -202.5t66.5 -124.5q41 -41 96 -58.5t127 -17.5t127 17.5 t96 58.5q45 45 66.5 124.5t21.5 202.5t-21.5 203t-66.5 125q-41 41 -96 58.5t-127 17.5t-127 -17.5t-96 -58.5q-45 -45 -66.5 -125t-21.5 -203zM295 1159l225 238h162l223 -238h-166l-139 144l-139 -144h-166z" />
<glyph unicode="&#xf5;" horiz-adv-x="1200" d="M113 522q0 156 34.5 260.5t99 168t153.5 91t200 27.5t200 -27.5t153.5 -91t99 -168t34.5 -260.5t-34.5 -260t-99 -167.5t-153.5 -91.5t-200 -28t-200 28t-153.5 91.5t-99 168t-34.5 259.5zM260 1204v135q31 23 84 48.5t102 25.5q39 0 78 -11t77 -23.5t76 -24t77 -11.5 q45 0 96 23t92 51v-135q-31 -23 -84 -47.5t-102 -24.5q-39 0 -79 10.5t-78 23.5t-76 23.5t-74 10.5q-45 0 -96.5 -22.5t-92.5 -51.5zM289 522q0 -123 21.5 -202.5t66.5 -124.5q41 -41 96 -58.5t127 -17.5t127 17.5t96 58.5q45 45 66.5 124.5t21.5 202.5t-21.5 203t-66.5 125 q-41 41 -96 58.5t-127 17.5t-127 -17.5t-96 -58.5q-45 -45 -66.5 -125t-21.5 -203z" />
<glyph unicode="&#xf6;" horiz-adv-x="1200" d="M113 522q0 156 34.5 260.5t99 168t153.5 91t200 27.5t200 -27.5t153.5 -91t99 -168t34.5 -260.5t-34.5 -260t-99 -167.5t-153.5 -91.5t-200 -28t-200 28t-153.5 91.5t-99 168t-34.5 259.5zM289 522q0 -123 21.5 -202.5t66.5 -124.5q41 -41 96 -58.5t127 -17.5t127 17.5 t96 58.5q45 45 66.5 124.5t21.5 202.5t-21.5 203t-66.5 125q-41 41 -96 58.5t-127 17.5t-127 -17.5t-96 -58.5q-45 -45 -66.5 -125t-21.5 -203zM315 1202v176h183v-176h-183zM705 1202v176h182v-176h-182z" />
<glyph unicode="&#xf7;" horiz-adv-x="1191" d="M115 483v146h962v-146h-962zM500 104v191h196v-191h-196zM500 823v191h196v-191h-196z" />
<glyph unicode="&#xf8;" horiz-adv-x="1200" d="M113 522q0 156 34.5 260.5t99 168t153.5 91t200 27.5q55 0 105 -6l32 92h156l-45 -133q113 -51 176 -170t63 -330q0 -156 -34.5 -260t-99 -167.5t-153.5 -91.5t-200 -28q-63 0 -111 9l-32 -97h-156l47 136q-111 53 -173 170.5t-62 328.5zM289 522q0 -123 21.5 -202.5 t66.5 -124.5q6 -8 22 -21l258 748q-14 2 -27.5 3t-29.5 1q-72 0 -127 -17.5t-96 -58.5q-45 -45 -66.5 -125t-21.5 -203zM537 121q16 -2 31.5 -2h31.5q72 0 127 17.5t96 58.5q45 45 66.5 124.5t21.5 202.5t-21.5 203t-66.5 125q-8 6 -14 12t-14 10z" />
<glyph unicode="&#xf9;" horiz-adv-x="1206" d="M156 307v737h168v-702q0 -117 43 -165t161 -48q96 0 183.5 44t152.5 128v743h168v-1044h-121l-24 147h-2q-90 -92 -191.5 -128.5t-206.5 -36.5q-96 0 -159.5 20.5t-102.5 60t-54 101t-15 143.5zM248 1389h223l221 -230h-157z" />
<glyph unicode="&#xfa;" horiz-adv-x="1206" d="M156 307v737h168v-702q0 -117 43 -165t161 -48q96 0 183.5 44t152.5 128v743h168v-1044h-121l-24 147h-2q-90 -92 -191.5 -128.5t-206.5 -36.5q-96 0 -159.5 20.5t-102.5 60t-54 101t-15 143.5zM508 1159l221 230h223l-286 -230h-158z" />
<glyph unicode="&#xfb;" horiz-adv-x="1206" d="M156 307v737h168v-702q0 -117 43 -165t161 -48q96 0 183.5 44t152.5 128v743h168v-1044h-121l-24 147h-2q-90 -92 -191.5 -128.5t-206.5 -36.5q-96 0 -159.5 20.5t-102.5 60t-54 101t-15 143.5zM289 1159l225 238h162l223 -238h-166l-139 144l-139 -144h-166z" />
<glyph unicode="&#xfc;" horiz-adv-x="1206" d="M156 307v737h168v-702q0 -117 43 -165t161 -48q96 0 183.5 44t152.5 128v743h168v-1044h-121l-24 147h-2q-90 -92 -191.5 -128.5t-206.5 -36.5q-96 0 -159.5 20.5t-102.5 60t-54 101t-15 143.5zM309 1202v176h183v-176h-183zM698 1202v176h183v-176h-183z" />
<glyph unicode="&#xfd;" horiz-adv-x="1054" d="M29 1044h180l213 -536q12 -33 27.5 -72t30 -76.5t27.5 -74.5t23 -66h5q10 29 23 66t27.5 74.5t30 76.5t27.5 72l213 536h170l-561 -1388h-174l151 373zM453 1159l221 230h223l-287 -230h-157z" />
<glyph unicode="&#xfe;" horiz-adv-x="1202" d="M174 -344v1733h168v-449h4q53 66 140 94.5t176 28.5q119 0 200.5 -38t133 -107.5t73 -168t21.5 -219.5q0 -268 -117 -408t-367 -140q-66 0 -114 9t-80 21q-37 12 -66 31h-4v-387h-168zM342 203q45 -41 110.5 -59.5t131.5 -18.5q76 0 137 19.5t103 65.5t64.5 122t22.5 190 q0 219 -70.5 308.5t-217.5 89.5q-80 0 -151 -40t-130 -114v-563z" />
<glyph unicode="&#xff;" horiz-adv-x="1054" d="M29 1044h180l213 -536q12 -33 27.5 -72t30 -76.5t27.5 -74.5t23 -66h5q10 29 23 66t27.5 74.5t30 76.5t27.5 72l213 536h170l-561 -1388h-174l151 373zM242 1202v176h182v-176h-182zM631 1202v176h182v-176h-182z" />
<glyph unicode="&#x152;" horiz-adv-x="2039" d="M115 694q0 168 27.5 301t95 226.5t181 142.5t288.5 49q150 0 245 -37t152 -106h4v119h838v-146h-652v-463h566v-145h-566v-490h668v-145h-854v121h-4q-57 -72 -151.5 -109t-245.5 -37q-174 0 -288 49.5t-181.5 142.5t-95 226t-27.5 301zM309 694q0 -143 18.5 -249.5 t63.5 -176t122 -104.5t194 -35t193.5 35t121.5 104.5t63.5 176t18.5 249.5t-18.5 250t-63.5 176.5t-122 104.5t-193 35q-117 0 -194 -35t-122 -104.5t-63.5 -176.5t-18.5 -250z" />
<glyph unicode="&#x153;" horiz-adv-x="1894" d="M113 522q0 156 34.5 260.5t99 168t153.5 91t200 27.5q135 0 235.5 -43t159.5 -141q59 100 156.5 142t222.5 42q219 0 316.5 -111.5t97.5 -326.5q0 -18 -3 -63.5t-7 -80.5h-686q4 -98 22.5 -171.5t65.5 -120.5q76 -76 254 -76q66 0 147.5 9t161.5 40v-143 q-37 -14 -82 -23.5t-90 -15.5t-88 -8.5t-78 -2.5q-154 0 -254 44t-156 137q-59 -98 -159.5 -139.5t-235.5 -41.5q-111 0 -200 28t-153.5 91.5t-99 168t-34.5 259.5zM289 522q0 -123 21.5 -202.5t66.5 -124.5q41 -41 96 -58.5t127 -17.5t127 17.5t96 58.5q45 45 66.5 124.5 t21.5 202.5t-21.5 203t-66.5 125q-41 41 -96 58.5t-127 17.5t-127 -17.5t-96 -58.5q-45 -45 -66.5 -125t-21.5 -203zM1096 625h524q2 20 2 29.5v13.5q0 66 -13.5 117t-45.5 83q-31 31 -80.5 44.5t-110.5 13.5q-53 0 -103 -13.5t-89 -52.5q-68 -68 -84 -235z" />
<glyph unicode="&#x178;" horiz-adv-x="1177" d="M8 1389h203l381 -684h2l383 684h192l-487 -848v-541h-186v539zM307 1546v176h182v-176h-182zM696 1546v176h183v-176h-183z" />
<glyph unicode="&#x2c6;" d="M322 1159l225 238h162l223 -238h-166l-139 144l-140 -144h-165z" />
<glyph unicode="&#x2dc;" d="M324 1204v135q31 23 84 48.5t102 25.5q39 0 78 -11t76.5 -23.5t75.5 -24t77 -11.5q45 0 96.5 23t92.5 51v-135q-31 -23 -84.5 -47.5t-102.5 -24.5q-39 0 -79 10.5t-77.5 23.5t-75.5 23.5t-75 10.5q-45 0 -96 -22.5t-92 -51.5z" />
<glyph unicode="&#x2000;" horiz-adv-x="902" />
<glyph unicode="&#x2001;" horiz-adv-x="1804" />
<glyph unicode="&#x2002;" horiz-adv-x="902" />
<glyph unicode="&#x2003;" horiz-adv-x="1804" />
<glyph unicode="&#x2004;" horiz-adv-x="601" />
<glyph unicode="&#x2005;" horiz-adv-x="451" />
<glyph unicode="&#x2006;" horiz-adv-x="300" />
<glyph unicode="&#x2007;" horiz-adv-x="300" />
<glyph unicode="&#x2008;" horiz-adv-x="225" />
<glyph unicode="&#x2009;" horiz-adv-x="360" />
<glyph unicode="&#x200a;" horiz-adv-x="100" />
<glyph unicode="&#x2010;" horiz-adv-x="786" d="M66 483v146h655v-146h-655z" />
<glyph unicode="&#x2011;" horiz-adv-x="786" d="M66 483v146h655v-146h-655z" />
<glyph unicode="&#x2012;" horiz-adv-x="786" d="M66 483v146h655v-146h-655z" />
<glyph unicode="&#x2013;" horiz-adv-x="1245" d="M115 483v146h1015v-146h-1015z" />
<glyph unicode="&#x2014;" horiz-adv-x="2344" d="M115 483v146h2115v-146h-2115z" />
<glyph unicode="&#x2018;" horiz-adv-x="526" d="M70 907l206 482h130l-115 -482h-221z" />
<glyph unicode="&#x2019;" horiz-adv-x="526" d="M121 907l115 482h221l-207 -482h-129z" />
<glyph unicode="&#x201a;" horiz-adv-x="526" d="M121 -242l115 482h221l-207 -482h-129z" />
<glyph unicode="&#x201c;" horiz-adv-x="899" d="M70 907l206 482h130l-115 -482h-221zM442 907l207 482h129l-114 -482h-222z" />
<glyph unicode="&#x201d;" horiz-adv-x="897" d="M121 907l115 482h221l-207 -482h-129zM492 907l114 482h221l-206 -482h-129z" />
<glyph unicode="&#x201e;" horiz-adv-x="899" d="M121 -242l115 482h221l-207 -482h-129zM494 -242l114 482h221l-206 -482h-129z" />
<glyph unicode="&#x2022;" d="M356 700q0 53 19.5 100.5t54.5 82.5t82 55t100 20t100.5 -20t82 -55t55 -82t20.5 -101q0 -53 -20.5 -100t-55 -82t-81.5 -54.5t-101 -19.5q-53 0 -100 19.5t-82 54.5t-54.5 82t-19.5 100z" />
<glyph unicode="&#x2026;" horiz-adv-x="2123" d="M86 0v219h217v-219h-217zM954 0v219h217v-219h-217zM1821 0v219h217v-219h-217z" />
<glyph unicode="&#x202f;" horiz-adv-x="360" />
<glyph unicode="&#x2039;" horiz-adv-x="788" d="M127 578l326 466h209l-320 -466l320 -474h-209z" />
<glyph unicode="&#x203a;" horiz-adv-x="788" d="M127 104l319 474l-319 466h209l326 -466l-326 -474h-209z" />
<glyph unicode="&#x205f;" horiz-adv-x="451" />
<glyph unicode="&#x20ac;" horiz-adv-x="1054" d="M16 401l54 127h102v109h-137l53 127h96q14 92 48 167t91.5 127t142.5 79.5t204 27.5q57 0 125.5 -6t142.5 -31v-143q-68 25 -132.5 31t-117.5 6q-147 0 -222 -64.5t-101 -193.5h481l-55 -127h-441v-109h402l-54 -127h-336q25 -137 101 -207.5t225 -70.5q55 0 129 10 t152 39v-147q-86 -29 -158 -39.5t-141 -10.5q-221 0 -340 101.5t-148 324.5h-166z" />
<glyph unicode="&#x2122;" horiz-adv-x="1339" d="M31 1305v84h477v-84h-193v-541h-96v541h-188zM592 764v625h139l176 -381h4l176 381h140v-625h-101v229q0 145 7 293h-5q-8 -18 -18 -43.5t-22.5 -53.5t-24.5 -54.5t-21 -47.5l-88 -188h-94l-88 188q-10 20 -21.5 47t-23.5 55t-22.5 53.5t-18.5 43.5h-4q6 -147 6 -293 v-229h-96z" />
<glyph unicode="&#x25fc;" horiz-adv-x="1044" d="M0 0v1044h1044v-1044h-1044z" />
<glyph unicode="&#xfb03;" horiz-adv-x="2015" d="M61 907v119l183 14v56q0 92 18.5 152.5t57 95t100 49t149.5 14.5q39 0 100.5 -4t121.5 -19v-139q-49 12 -104.5 16.5t-92.5 4.5q-63 0 -100 -9.5t-55.5 -29t-22.5 -52t-4 -77.5v-54h280v-137h-280v-907h-168v907h-183zM791 907v119l192 14v56q0 92 18.5 152.5t58.5 95 t102.5 49t150.5 14.5q35 0 81 -4t99 -19v-139q-45 12 -83 16.5t-73 4.5q-66 0 -102.5 -9.5t-55 -29t-23.5 -52t-5 -77.5v-54h342v-137h-342v-907h-168v907h-192zM1653 1198v191h194v-191h-194zM1665 0v1044h168v-1044h-168z" />
<glyph unicode="&#xfb04;" horiz-adv-x="2007" d="M61 907v119l183 14v56q0 92 18.5 152.5t57 95t100 49t149.5 14.5q39 0 100.5 -4t121.5 -19v-139q-49 12 -104.5 16.5t-92.5 4.5q-63 0 -100 -9.5t-55.5 -29t-22.5 -52t-4 -77.5v-54h280v-137h-280v-907h-168v907h-183zM791 907v119l192 14v56q0 92 18.5 152.5t58.5 95 t102.5 49t150.5 14.5q35 0 81 -4t99 -19v-139q-45 12 -83 16.5t-73 4.5q-66 0 -102.5 -9.5t-55 -29t-23.5 -52t-5 -77.5v-54h342v-137h-342v-907h-168v907h-192zM1665 0v1389h168v-1389h-168z" />
</font>
</defs>
</svg>
